<svg xmlns="http://www.w3.org/2000/svg" xmlns:xlink="http://www.w3.org/1999/xlink" width="1024" zoomAndPan="magnify" viewBox="0 0 768 767.999994" height="1024" preserveAspectRatio="xMidYMid meet" version="1.0"><defs><g/></defs><g fill="#ffffff" fill-opacity="1"><g transform="translate(149.864996, 486.331916)"><g><path d="M 105.9375 -151.765625 C 93.625 -151.765625 84.019531 -146.722656 77.125 -136.640625 C 70.226562 -126.554688 66.78125 -112.65625 66.78125 -94.9375 C 66.78125 -58.09375 80.789062 -39.671875 108.8125 -39.671875 C 117.28125 -39.671875 125.488281 -40.847656 133.4375 -43.203125 C 141.382812 -45.566406 149.375 -48.40625 157.40625 -51.71875 L 157.40625 -7.984375 C 141.425781 -0.910156 123.351562 2.625 103.1875 2.625 C 74.289062 2.625 52.140625 -5.753906 36.734375 -22.515625 C 21.328125 -39.285156 13.625 -63.515625 13.625 -95.203125 C 13.625 -115.015625 17.351562 -132.425781 24.8125 -147.4375 C 32.28125 -162.457031 43.019531 -174.003906 57.03125 -182.078125 C 71.039062 -190.160156 87.519531 -194.203125 106.46875 -194.203125 C 127.15625 -194.203125 146.925781 -189.707031 165.78125 -180.71875 L 149.9375 -139.984375 C 142.863281 -143.304688 135.789062 -146.097656 128.71875 -148.359375 C 121.65625 -150.628906 114.0625 -151.765625 105.9375 -151.765625 Z M 105.9375 -151.765625 "/></g></g></g><g fill="#ffffff" fill-opacity="1"><g transform="translate(302.508036, 543.375)"><g><path d="M 283.84375 0 L 203.984375 0 L 203.984375 -119.890625 L 111.640625 -119.890625 L 111.640625 0 L 31.78125 0 L 31.78125 -294.109375 L 111.640625 -294.109375 L 111.640625 -185.078125 L 203.984375 -185.078125 L 203.984375 -294.109375 L 283.84375 -294.109375 Z M 283.84375 0 "/></g></g></g><path stroke-linecap="butt" transform="matrix(3.755605, 0.000000000000001276, -0.000000000000001274, 3.75, 334.88073, 541.637513)" fill="none" stroke-linejoin="miter" d="M -0.000485509 -0.000211853 L 66.901595 -0.000211853 " stroke="#ffffff" stroke-width="1" stroke-opacity="1" stroke-miterlimit="4"/></svg>