<svg xmlns="http://www.w3.org/2000/svg" xmlns:xlink="http://www.w3.org/1999/xlink" width="500" zoomAndPan="magnify" viewBox="0 0 375 374.999991" height="500" preserveAspectRatio="xMidYMid meet" version="1.0"><defs><g/><clipPath id="id1"><path d="M 120 95.351562 L 268.6875 95.351562 L 268.6875 215.351562 L 120 215.351562 Z M 120 95.351562 " clip-rule="nonzero"/></clipPath></defs><path fill="rgb(90.19928%, 90.589905%, 90.979004%)" d="M 176.46875 157.605469 C 175.039062 156.753906 173.496094 156.316406 171.832031 156.289062 C 171.550781 156.289062 171.265625 156.304688 170.984375 156.335938 C 169.28125 156.53125 167.953125 157.316406 167.246094 158.542969 C 165.738281 161.136719 167.457031 164.9375 171.046875 167 C 172.734375 168.019531 174.5625 168.445312 176.527344 168.269531 C 178.230469 168.070312 179.542969 167.289062 180.269531 166.0625 C 181.761719 163.480469 180.054688 159.679688 176.46875 157.605469 Z M 176.46875 157.605469 " fill-opacity="1" fill-rule="nonzero"/><path fill="rgb(90.19928%, 90.589905%, 90.979004%)" d="M 166.5 157.527344 C 166.664062 157.296875 166.84375 157.082031 167.039062 156.878906 C 165.992188 155.453125 165.148438 153.910156 164.507812 152.257812 C 163.871094 150.601562 163.464844 148.890625 163.285156 147.128906 C 163.105469 145.363281 163.160156 143.605469 163.453125 141.859375 C 163.746094 140.109375 164.261719 138.429688 165.003906 136.820312 C 159.007812 139.078125 158.113281 142.558594 158.015625 143.046875 C 158.140625 144.050781 159.621094 154.691406 166.5 157.527344 Z M 166.5 157.527344 " fill-opacity="1" fill-rule="nonzero"/><path fill="rgb(90.19928%, 90.589905%, 90.979004%)" d="M 175.984375 178.066406 C 177.292969 178.0625 178.589844 177.945312 179.875 177.707031 C 181.160156 177.472656 182.417969 177.121094 183.640625 176.660156 C 184.863281 176.195312 186.035156 175.625 187.152344 174.953125 C 188.273438 174.277344 189.324219 173.507812 190.308594 172.640625 C 191.289062 171.777344 192.183594 170.832031 192.996094 169.804688 C 193.808594 168.777344 194.519531 167.6875 195.132812 166.53125 C 195.75 165.375 196.253906 164.171875 196.652344 162.925781 C 197.050781 161.675781 197.332031 160.40625 197.503906 159.105469 C 192.707031 164.59375 186.113281 165.253906 183.234375 165.253906 C 182.777344 165.257812 182.320312 165.238281 181.863281 165.195312 C 181.753906 165.71875 181.566406 166.214844 181.300781 166.679688 C 180.398438 168.242188 178.753906 169.238281 176.667969 169.476562 C 176.339844 169.515625 176.011719 169.53125 175.683594 169.53125 C 173.808594 169.507812 172.0625 169.015625 170.449219 168.054688 C 166.550781 165.800781 164.636719 161.683594 165.910156 158.570312 C 160.203125 156.140625 157.996094 149.136719 157.210938 145.433594 C 156.972656 145.84375 156.75 146.261719 156.539062 146.6875 C 156.328125 147.113281 156.132812 147.542969 155.953125 147.984375 C 155.769531 148.421875 155.601562 148.863281 155.449219 149.3125 C 155.296875 149.761719 155.160156 150.21875 155.039062 150.675781 C 154.914062 151.132812 154.808594 151.59375 154.714844 152.0625 C 154.621094 152.527344 154.542969 152.992188 154.480469 153.464844 C 154.417969 153.933594 154.371094 154.40625 154.339844 154.878906 C 154.308594 155.355469 154.292969 155.828125 154.292969 156.300781 C 154.292969 156.777344 154.308594 157.25 154.339844 157.722656 C 154.371094 158.199219 154.414062 158.671875 154.476562 159.140625 C 154.539062 159.609375 154.617188 160.078125 154.707031 160.542969 C 154.800781 161.011719 154.90625 161.472656 155.03125 161.929688 C 155.152344 162.390625 155.289062 162.84375 155.441406 163.292969 C 155.59375 163.742188 155.757812 164.1875 155.941406 164.625 C 156.121094 165.0625 156.316406 165.496094 156.523438 165.921875 C 156.734375 166.347656 156.957031 166.765625 157.195312 167.175781 C 157.429688 167.585938 157.679688 167.992188 157.941406 168.386719 C 158.207031 168.78125 158.480469 169.164062 158.769531 169.542969 C 159.058594 169.917969 159.359375 170.285156 159.671875 170.644531 C 159.980469 171 160.304688 171.347656 160.640625 171.683594 C 160.976562 172.019531 161.320312 172.34375 161.675781 172.65625 C 162.03125 172.96875 162.398438 173.269531 162.773438 173.558594 C 163.148438 173.847656 163.535156 174.125 163.925781 174.390625 C 164.320312 174.652344 164.722656 174.902344 165.132812 175.140625 C 165.542969 175.378906 165.960938 175.601562 166.386719 175.8125 C 166.808594 176.023438 167.242188 176.21875 167.679688 176.402344 C 168.117188 176.582031 168.558594 176.75 169.007812 176.90625 C 169.457031 177.058594 169.910156 177.195312 170.367188 177.320312 C 170.824219 177.441406 171.285156 177.550781 171.75 177.644531 C 172.214844 177.734375 172.683594 177.8125 173.152344 177.875 C 173.621094 177.9375 174.09375 177.984375 174.566406 178.015625 C 175.039062 178.046875 175.511719 178.066406 175.984375 178.066406 Z M 175.984375 178.066406 " fill-opacity="1" fill-rule="nonzero"/><path fill="rgb(57.649231%, 58.428955%, 59.609985%)" d="M 167.972656 156.128906 C 168.855469 155.578125 169.8125 155.253906 170.847656 155.148438 C 173.074219 154.941406 175.148438 155.414062 177.066406 156.570312 C 180.148438 158.351562 181.988281 161.300781 181.988281 164 C 182.710938 164.074219 192.089844 164.847656 197.671875 156.957031 C 197.671875 156.75 197.6875 156.539062 197.6875 156.328125 C 197.6875 155.867188 197.671875 155.40625 197.644531 154.945312 C 197.613281 154.484375 197.570312 154.027344 197.511719 153.570312 C 197.453125 153.113281 197.382812 152.65625 197.296875 152.207031 C 197.207031 151.753906 197.105469 151.304688 196.992188 150.855469 C 196.875 150.410156 196.746094 149.96875 196.601562 149.53125 C 196.457031 149.09375 196.300781 148.660156 196.128906 148.234375 C 195.957031 147.804688 195.773438 147.382812 195.574219 146.964844 C 195.378906 146.550781 195.167969 146.140625 194.941406 145.738281 C 194.71875 145.335938 194.480469 144.941406 194.234375 144.554688 C 193.984375 144.167969 193.722656 143.785156 193.449219 143.417969 C 193.175781 143.046875 192.890625 142.683594 192.59375 142.332031 C 192.300781 141.976562 191.992188 141.636719 191.671875 141.300781 C 191.355469 140.96875 191.027344 140.644531 190.6875 140.335938 C 190.351562 140.023438 190.003906 139.722656 189.644531 139.429688 C 189.285156 139.140625 188.921875 138.863281 188.542969 138.597656 C 188.167969 138.328125 187.785156 138.074219 187.394531 137.832031 C 187.003906 137.589844 186.605469 137.359375 186.199219 137.144531 C 185.792969 136.925781 185.378906 136.722656 184.960938 136.535156 C 184.539062 136.34375 184.117188 136.167969 183.6875 136.003906 C 183.253906 135.839844 182.820312 135.691406 182.378906 135.554688 C 181.941406 135.417969 181.496094 135.296875 181.050781 135.191406 C 180.601562 135.082031 180.152344 134.988281 179.699219 134.910156 C 179.246094 134.832031 178.789062 134.769531 178.332031 134.71875 C 177.875 134.667969 177.414062 134.632812 176.957031 134.613281 C 176.496094 134.59375 176.035156 134.589844 175.574219 134.597656 C 175.117188 134.605469 174.65625 134.628906 174.199219 134.667969 C 173.738281 134.707031 173.28125 134.757812 172.828125 134.828125 C 172.371094 134.894531 171.917969 134.976562 171.46875 135.074219 C 171.019531 135.167969 170.574219 135.28125 170.128906 135.402344 C 169.6875 135.527344 169.25 135.667969 168.8125 135.820312 C 168.378906 135.972656 167.949219 136.140625 167.527344 136.320312 C 167.105469 136.5 166.6875 136.691406 166.273438 136.898438 C 161.628906 146.824219 166.578125 154.316406 167.972656 156.128906 Z M 167.972656 156.128906 " fill-opacity="1" fill-rule="nonzero"/><path fill="rgb(90.19928%, 90.589905%, 90.979004%)" d="M 210.207031 158.753906 C 210.332031 159.054688 210.546875 159.265625 210.851562 159.386719 C 211.148438 159.503906 211.441406 159.492188 211.734375 159.355469 L 216.558594 157.105469 C 216.691406 157.042969 216.808594 156.960938 216.910156 156.851562 C 217.011719 156.746094 217.085938 156.621094 217.140625 156.484375 C 217.191406 156.347656 217.214844 156.203125 217.210938 156.054688 C 217.207031 155.910156 217.175781 155.765625 217.117188 155.632812 L 214.554688 149.640625 C 214.480469 149.464844 214.375 149.316406 214.234375 149.1875 C 214.097656 149.058594 213.9375 148.960938 213.761719 148.898438 C 213.582031 148.835938 213.398438 148.8125 213.210938 148.828125 C 213.019531 148.84375 212.84375 148.898438 212.675781 148.988281 L 208.195312 151.402344 C 208.042969 151.484375 207.914062 151.59375 207.800781 151.726562 C 207.691406 151.859375 207.609375 152.007812 207.554688 152.171875 C 207.5 152.332031 207.480469 152.503906 207.488281 152.675781 C 207.5 152.847656 207.539062 153.011719 207.613281 153.167969 Z M 210.207031 158.753906 " fill-opacity="1" fill-rule="nonzero"/><path fill="rgb(90.19928%, 90.589905%, 90.979004%)" d="M 226.160156 175.695312 C 227.308594 174.742188 228.417969 173.734375 229.476562 172.675781 C 232.210938 157.488281 221.589844 149.441406 221.484375 149.363281 C 221.453125 149.335938 221.421875 149.308594 221.390625 149.277344 C 220.042969 149.035156 218.6875 148.957031 217.320312 149.046875 L 217.171875 149.046875 C 220.125 151.535156 229.605469 160.800781 226.160156 175.695312 Z M 226.160156 175.695312 " fill-opacity="1" fill-rule="nonzero"/><path fill="rgb(96.859741%, 73.329163%, 20.388794%)" d="M 239.332031 162.097656 C 239.210938 162.050781 239.09375 162.050781 238.972656 162.097656 C 238.855469 162.144531 238.765625 162.226562 238.707031 162.339844 C 237.246094 165 235.550781 167.503906 233.632812 169.851562 C 231.710938 172.199219 229.59375 174.355469 227.28125 176.316406 C 224.964844 178.277344 222.496094 180.011719 219.863281 181.519531 C 217.234375 183.03125 214.488281 184.289062 211.628906 185.296875 L 211.65625 185.476562 C 212 187.835938 212.359375 190.269531 213.03125 192.597656 C 213.75 195.097656 214.566406 197.933594 214.113281 200.765625 C 213.875 202.21875 213.289062 203.511719 212.355469 204.644531 C 226.71875 195.652344 237.1875 180.621094 239.691406 162.660156 C 239.710938 162.535156 239.6875 162.417969 239.621094 162.308594 C 239.550781 162.203125 239.457031 162.132812 239.332031 162.097656 Z M 239.332031 162.097656 " fill-opacity="1" fill-rule="nonzero"/><path fill="rgb(90.19928%, 90.589905%, 90.979004%)" d="M 265.59375 162.089844 C 263.589844 160.640625 261.4375 160.742188 259.683594 161.289062 C 259.613281 161.367188 259.527344 161.425781 259.425781 161.457031 C 259.367188 161.476562 259.304688 161.484375 259.242188 161.484375 C 259.210938 161.484375 259.179688 161.480469 259.152344 161.472656 C 257.996094 161.914062 256.933594 162.523438 255.96875 163.300781 C 255.847656 163.4375 255.699219 163.507812 255.515625 163.503906 C 255.332031 163.503906 255.179688 163.433594 255.0625 163.296875 C 254.941406 163.15625 254.894531 162.996094 254.921875 162.816406 C 254.945312 162.636719 255.035156 162.496094 255.1875 162.394531 C 256.183594 161.59375 257.273438 160.953125 258.457031 160.472656 C 257.589844 158.238281 254.011719 150.265625 245.835938 146.25 C 237.496094 142.152344 228.363281 148.128906 226.300781 149.617188 C 229.113281 150.980469 231.449219 152.921875 233.300781 155.441406 C 233.367188 155.578125 233.382812 155.71875 233.34375 155.863281 C 233.304688 156.011719 233.222656 156.125 233.097656 156.210938 C 232.972656 156.292969 232.832031 156.328125 232.683594 156.308594 C 232.535156 156.289062 232.410156 156.222656 232.308594 156.109375 C 231.230469 154.691406 229.972656 153.457031 228.535156 152.40625 C 227.101562 151.351562 225.542969 150.53125 223.867188 149.933594 C 226.765625 152.886719 232.25 160.082031 230.894531 171.179688 C 233.527344 168.308594 235.78125 165.167969 237.664062 161.753906 C 237.84375 161.417969 238.105469 161.171875 238.453125 161.015625 C 238.800781 160.859375 239.160156 160.824219 239.53125 160.910156 C 240.289062 160.78125 243.707031 160.484375 246.207031 164.816406 C 247.113281 166.394531 247.519531 168.074219 247.871094 169.554688 C 248.609375 172.667969 249.144531 174.917969 253.632812 175.257812 C 258.402344 175.628906 264.679688 170.386719 266.277344 166.007812 C 266.726562 164.773438 266.976562 163.089844 265.59375 162.089844 Z M 265.59375 162.089844 " fill-opacity="1" fill-rule="nonzero"/><path fill="rgb(90.19928%, 90.589905%, 90.979004%)" d="M 211.882812 192.941406 C 211.191406 190.523438 210.824219 188.058594 210.472656 185.664062 C 209.890625 181.695312 209.339844 177.949219 207.425781 174.542969 C 207.316406 174.398438 207.277344 174.234375 207.3125 174.054688 C 207.351562 173.875 207.449219 173.738281 207.609375 173.648438 C 207.769531 173.558594 207.9375 173.542969 208.109375 173.605469 C 208.28125 173.667969 208.402344 173.785156 208.46875 173.957031 C 210.25 177.128906 210.921875 180.640625 211.449219 184.101562 C 216.234375 182.386719 220.648438 179.980469 224.683594 176.882812 C 224.664062 176.800781 224.664062 176.71875 224.683594 176.632812 C 229.1875 160.21875 217.296875 150.65625 215.769531 149.492188 L 218.214844 155.160156 C 218.332031 155.433594 218.398438 155.726562 218.402344 156.027344 C 218.410156 156.328125 218.359375 156.621094 218.253906 156.902344 C 218.144531 157.1875 217.988281 157.4375 217.78125 157.65625 C 217.574219 157.878906 217.335938 158.050781 217.0625 158.179688 L 212.238281 160.433594 C 211.925781 160.578125 211.597656 160.648438 211.257812 160.648438 C 210.96875 160.648438 210.691406 160.59375 210.421875 160.492188 C 209.804688 160.257812 209.371094 159.835938 209.117188 159.226562 L 206.519531 153.664062 C 206.464844 153.550781 206.421875 153.433594 206.390625 153.3125 C 203.648438 155.234375 201.191406 157.46875 199.011719 160.011719 C 198.890625 160.160156 198.738281 160.234375 198.546875 160.234375 C 198.210938 162.148438 197.640625 163.988281 196.839844 165.761719 C 196.039062 167.53125 195.027344 169.171875 193.8125 170.6875 C 192.59375 172.199219 191.207031 173.539062 189.652344 174.699219 C 188.09375 175.863281 186.417969 176.8125 184.621094 177.546875 C 184.628906 177.570312 184.636719 177.59375 184.640625 177.617188 C 184.640625 177.679688 185.734375 183.789062 190.996094 186.753906 C 193.023438 186.925781 195.054688 186.972656 197.089844 186.890625 C 196.730469 183.246094 195.601562 179.859375 193.703125 176.734375 C 193.640625 176.59375 193.628906 176.453125 193.675781 176.308594 C 193.71875 176.160156 193.804688 176.046875 193.9375 175.96875 C 194.066406 175.890625 194.203125 175.863281 194.355469 175.886719 C 194.503906 175.914062 194.625 175.984375 194.722656 176.105469 C 195.59375 177.546875 196.3125 179.058594 196.886719 180.644531 C 197.457031 182.226562 197.867188 183.855469 198.121094 185.519531 C 198.371094 187.1875 198.457031 188.859375 198.375 190.542969 C 198.292969 192.226562 198.050781 193.886719 197.640625 195.519531 C 197.566406 195.820312 197.484375 196.109375 197.402344 196.402344 C 197.0625 197.4375 196.863281 198.5 196.800781 199.589844 C 196.800781 200.652344 197.175781 202.117188 198.308594 202.734375 C 198.894531 203.027344 199.484375 203.027344 200.070312 202.734375 C 200.488281 202.550781 200.742188 202.238281 200.835938 201.792969 C 200.882812 201.550781 201.023438 201.398438 201.257812 201.328125 C 201.492188 201.257812 201.695312 201.3125 201.863281 201.492188 C 203.5625 203.304688 205.886719 205.824219 208.429688 205.589844 C 210.875 205.371094 212.582031 202.851562 212.953125 200.59375 C 213.351562 198.019531 212.570312 195.320312 211.882812 192.941406 Z M 211.882812 192.941406 " fill-opacity="1" fill-rule="nonzero"/><path fill="rgb(97.648621%, 92.939758%, 19.60907%)" d="M 208.089844 206.796875 C 205.496094 206.796875 203.246094 204.703125 201.601562 202.96875 C 201.332031 203.332031 200.996094 203.613281 200.589844 203.8125 C 200.140625 204.039062 199.660156 204.152344 199.15625 204.148438 C 198.648438 204.144531 198.171875 204.027344 197.722656 203.796875 C 196.132812 202.921875 195.585938 201.050781 195.613281 199.585938 C 195.671875 198.394531 195.886719 197.230469 196.257812 196.09375 C 196.335938 195.808594 196.417969 195.519531 196.488281 195.234375 C 197.085938 192.890625 197.320312 190.511719 197.1875 188.097656 C 194.175781 188.21875 191.175781 188.074219 188.191406 187.65625 C 160.96875 183.851562 141.929688 158.582031 145.730469 131.332031 C 146.1875 127.957031 146.984375 124.660156 148.121094 121.445312 C 149.257812 118.234375 150.714844 115.171875 152.484375 112.261719 C 154.253906 109.347656 156.304688 106.648438 158.632812 104.164062 C 160.960938 101.675781 163.519531 99.457031 166.304688 97.5 C 166.390625 97.449219 166.410156 97.382812 166.359375 97.296875 C 166.328125 97.207031 166.269531 97.175781 166.179688 97.210938 C 163.40625 97.9375 160.703125 98.863281 158.066406 99.984375 C 155.429688 101.101562 152.890625 102.410156 150.441406 103.898438 C 147.996094 105.390625 145.667969 107.050781 143.460938 108.878906 C 141.257812 110.710938 139.195312 112.6875 137.273438 114.820312 C 135.355469 116.949219 133.601562 119.207031 132.011719 121.589844 C 130.421875 123.976562 129.011719 126.464844 127.78125 129.054688 C 126.550781 131.648438 125.515625 134.3125 124.671875 137.054688 C 123.832031 139.796875 123.191406 142.585938 122.753906 145.421875 C 120.3125 161.292969 124.320312 177.160156 134.039062 190.070312 C 143.753906 202.984375 157.886719 211.214844 173.796875 213.210938 C 176.785156 213.589844 179.789062 213.734375 182.800781 213.648438 C 185.8125 213.5625 188.800781 213.246094 191.765625 212.699219 C 194.730469 212.152344 197.632812 211.378906 200.480469 210.382812 C 203.324219 209.386719 206.078125 208.179688 208.734375 206.757812 C 208.667969 206.757812 208.597656 206.78125 208.523438 206.789062 C 208.378906 206.800781 208.234375 206.800781 208.089844 206.796875 Z M 208.089844 206.796875 " fill-opacity="1" fill-rule="nonzero"/><path fill="rgb(100%, 100%, 100%)" d="M 181.007812 138.921875 C 181.007812 139.101562 180.96875 139.28125 180.898438 139.457031 C 180.824219 139.632812 180.71875 139.804688 180.578125 139.972656 C 180.433594 140.136719 180.261719 140.296875 180.054688 140.445312 C 179.847656 140.597656 179.613281 140.734375 179.351562 140.863281 C 179.089844 140.988281 178.804688 141.101562 178.496094 141.203125 C 178.1875 141.304688 177.859375 141.386719 177.519531 141.457031 C 177.175781 141.527344 176.820312 141.578125 176.457031 141.613281 C 176.09375 141.648438 175.726562 141.667969 175.355469 141.667969 C 174.984375 141.667969 174.617188 141.648438 174.253906 141.613281 C 173.886719 141.578125 173.535156 141.527344 173.191406 141.457031 C 172.851562 141.386719 172.523438 141.304688 172.214844 141.203125 C 171.90625 141.101562 171.621094 140.988281 171.359375 140.863281 C 171.097656 140.734375 170.863281 140.597656 170.65625 140.445312 C 170.449219 140.296875 170.277344 140.136719 170.132812 139.972656 C 169.992188 139.804688 169.882812 139.632812 169.8125 139.457031 C 169.738281 139.28125 169.703125 139.101562 169.703125 138.921875 C 169.703125 138.742188 169.738281 138.5625 169.8125 138.386719 C 169.882812 138.207031 169.992188 138.035156 170.132812 137.871094 C 170.277344 137.703125 170.449219 137.546875 170.65625 137.394531 C 170.863281 137.246094 171.097656 137.105469 171.359375 136.980469 C 171.621094 136.851562 171.90625 136.738281 172.214844 136.636719 C 172.523438 136.539062 172.851562 136.453125 173.191406 136.382812 C 173.535156 136.316406 173.886719 136.261719 174.253906 136.226562 C 174.617188 136.191406 174.984375 136.175781 175.355469 136.175781 C 175.726562 136.175781 176.09375 136.191406 176.457031 136.226562 C 176.820312 136.261719 177.175781 136.316406 177.519531 136.382812 C 177.859375 136.453125 178.1875 136.539062 178.496094 136.636719 C 178.804688 136.738281 179.089844 136.851562 179.351562 136.980469 C 179.613281 137.105469 179.847656 137.246094 180.054688 137.394531 C 180.261719 137.546875 180.433594 137.703125 180.578125 137.871094 C 180.71875 138.035156 180.824219 138.207031 180.898438 138.386719 C 180.96875 138.5625 181.007812 138.742188 181.007812 138.921875 Z M 181.007812 138.921875 " fill-opacity="1" fill-rule="nonzero"/><path fill="rgb(100%, 100%, 100%)" d="M 185.113281 143.011719 C 185.113281 143.238281 185.0625 143.457031 184.957031 143.664062 C 184.851562 143.871094 184.703125 144.054688 184.511719 144.214844 C 184.320312 144.375 184.097656 144.496094 183.847656 144.585938 C 183.59375 144.671875 183.332031 144.714844 183.058594 144.714844 C 182.789062 144.714844 182.527344 144.671875 182.273438 144.585938 C 182.023438 144.496094 181.800781 144.375 181.609375 144.214844 C 181.414062 144.054688 181.265625 143.871094 181.164062 143.664062 C 181.058594 143.457031 181.007812 143.238281 181.007812 143.011719 C 181.007812 142.789062 181.058594 142.570312 181.164062 142.363281 C 181.265625 142.152344 181.414062 141.96875 181.609375 141.8125 C 181.800781 141.652344 182.023438 141.527344 182.273438 141.441406 C 182.527344 141.355469 182.789062 141.3125 183.058594 141.3125 C 183.332031 141.3125 183.59375 141.355469 183.847656 141.441406 C 184.097656 141.527344 184.320312 141.652344 184.511719 141.8125 C 184.703125 141.96875 184.851562 142.152344 184.957031 142.363281 C 185.0625 142.570312 185.113281 142.789062 185.113281 143.011719 Z M 185.113281 143.011719 " fill-opacity="1" fill-rule="nonzero"/><path fill="rgb(73.728943%, 74.508667%, 75.289917%)" d="M 167.667969 157.378906 C 167.757812 157.902344 167.894531 158.410156 168.082031 158.90625 C 168.265625 159.402344 168.496094 159.878906 168.769531 160.332031 C 169.042969 160.785156 169.355469 161.210938 169.710938 161.605469 C 170.0625 162 170.449219 162.359375 170.871094 162.683594 C 171.289062 163.007812 171.734375 163.285156 172.207031 163.527344 C 172.679688 163.765625 173.171875 163.957031 173.679688 164.105469 C 174.1875 164.253906 174.707031 164.351562 175.234375 164.402344 C 175.761719 164.453125 176.289062 164.453125 176.816406 164.402344 C 177.777344 164.355469 178.644531 164.042969 179.421875 163.46875 C 179.800781 163.179688 180.078125 162.8125 180.253906 162.367188 C 180.429688 161.921875 180.476562 161.460938 180.398438 160.992188 C 181.871094 162.632812 181.605469 165.453125 180.199219 167.148438 C 178.792969 168.84375 176.433594 169.566406 174.234375 169.390625 C 173.667969 169.347656 173.109375 169.253906 172.558594 169.109375 C 172.011719 168.964844 171.480469 168.773438 170.964844 168.53125 C 170.449219 168.289062 169.964844 168.003906 169.5 167.671875 C 169.039062 167.339844 168.609375 166.972656 168.214844 166.5625 C 167.820312 166.152344 167.46875 165.710938 167.152344 165.238281 C 166.839844 164.765625 166.570312 164.265625 166.347656 163.742188 C 166.125 163.21875 165.953125 162.679688 165.828125 162.125 C 165.703125 161.570312 165.628906 161.007812 165.605469 160.441406 C 165.539062 159.679688 165.667969 158.957031 166 158.273438 C 166.15625 157.960938 166.382812 157.722656 166.691406 157.558594 C 166.996094 157.394531 167.324219 157.332031 167.667969 157.378906 Z M 167.667969 157.378906 " fill-opacity="1" fill-rule="nonzero"/><path fill="rgb(100%, 100%, 100%)" d="M 174.253906 156.625 C 174.699219 156.761719 175.117188 156.933594 175.503906 157.144531 C 175.890625 157.351562 176.21875 157.582031 176.488281 157.832031 C 176.757812 158.078125 176.945312 158.332031 177.054688 158.582031 C 177.164062 158.835938 177.1875 159.070312 177.121094 159.285156 C 177.054688 159.503906 176.90625 159.683594 176.675781 159.832031 C 176.441406 159.980469 176.144531 160.082031 175.785156 160.136719 C 175.421875 160.195312 175.019531 160.203125 174.582031 160.160156 C 174.144531 160.113281 173.703125 160.023438 173.257812 159.890625 C 172.8125 159.753906 172.394531 159.578125 172.007812 159.371094 C 171.621094 159.160156 171.292969 158.933594 171.023438 158.683594 C 170.753906 158.433594 170.566406 158.183594 170.453125 157.929688 C 170.34375 157.679688 170.324219 157.445312 170.390625 157.226562 C 170.457031 157.011719 170.605469 156.828125 170.835938 156.679688 C 171.066406 156.535156 171.363281 156.429688 171.726562 156.375 C 172.089844 156.316406 172.488281 156.3125 172.925781 156.355469 C 173.363281 156.398438 173.804688 156.488281 174.253906 156.625 Z M 174.253906 156.625 " fill-opacity="1" fill-rule="nonzero"/><path fill="rgb(73.728943%, 74.508667%, 75.289917%)" d="M 175.984375 178.066406 C 178.40625 178.066406 180.765625 177.671875 183.054688 176.878906 L 185.238281 175.972656 C 186.839844 175.210938 188.324219 174.269531 189.699219 173.148438 C 191.070312 172.023438 192.285156 170.75 193.347656 169.328125 C 194.410156 167.90625 195.285156 166.378906 195.972656 164.746094 C 196.660156 163.109375 197.140625 161.414062 197.417969 159.660156 L 197.164062 159.46875 C 192.402344 164.601562 186.046875 165.246094 183.234375 165.246094 C 182.777344 165.25 182.320312 165.230469 181.863281 165.1875 C 181.753906 165.710938 181.566406 166.203125 181.300781 166.667969 C 180.398438 168.234375 178.753906 169.226562 176.667969 169.464844 C 176.339844 169.503906 176.011719 169.523438 175.683594 169.523438 C 173.808594 169.496094 172.0625 169.003906 170.449219 168.046875 C 166.550781 165.792969 164.636719 161.671875 165.910156 158.5625 C 159.578125 162.019531 154.289062 156.324219 154.289062 156.324219 C 154.289062 157.035156 154.324219 157.746094 154.394531 158.453125 C 154.460938 159.164062 154.566406 159.867188 154.707031 160.5625 C 154.84375 161.261719 155.015625 161.953125 155.222656 162.632812 C 155.429688 163.3125 155.667969 163.984375 155.941406 164.640625 C 156.210938 165.296875 156.515625 165.941406 156.851562 166.570312 C 157.1875 167.195312 157.550781 167.804688 157.945312 168.398438 C 158.339844 168.992188 158.761719 169.5625 159.214844 170.113281 C 159.664062 170.660156 160.140625 171.1875 160.644531 171.691406 C 161.144531 172.195312 161.671875 172.671875 162.222656 173.125 C 162.769531 173.578125 163.339844 174 163.929688 174.394531 C 164.523438 174.792969 165.132812 175.15625 165.757812 175.492188 C 166.382812 175.828125 167.027344 176.132812 167.683594 176.40625 C 168.339844 176.679688 169.007812 176.917969 169.6875 177.125 C 170.367188 177.332031 171.054688 177.503906 171.753906 177.644531 C 172.449219 177.785156 173.152344 177.890625 173.859375 177.957031 C 174.566406 178.027344 175.273438 178.066406 175.984375 178.066406 Z M 175.984375 178.066406 " fill-opacity="1" fill-rule="nonzero"/><path fill="rgb(73.728943%, 74.508667%, 75.289917%)" d="M 159.21875 141.3125 L 158.917969 141.097656 C 158.488281 141.683594 158.1875 142.328125 158.011719 143.03125 C 158.136719 144.050781 159.621094 154.691406 166.5 157.511719 C 166.660156 157.28125 166.839844 157.066406 167.039062 156.863281 C 159.449219 152.089844 159.21875 141.3125 159.21875 141.3125 Z M 159.21875 141.3125 " fill-opacity="1" fill-rule="nonzero"/><path fill="rgb(96.859741%, 73.329163%, 20.388794%)" d="M 208.523438 206.777344 C 208.378906 206.792969 208.234375 206.796875 208.089844 206.796875 C 205.496094 206.796875 203.246094 204.703125 201.601562 202.96875 C 201.332031 203.332031 200.996094 203.613281 200.589844 203.8125 C 200.140625 204.039062 199.660156 204.152344 199.15625 204.148438 C 198.648438 204.144531 198.171875 204.027344 197.722656 203.796875 C 196.132812 202.921875 195.585938 201.050781 195.613281 199.585938 C 195.671875 198.394531 195.886719 197.230469 196.257812 196.09375 C 196.335938 195.808594 196.417969 195.519531 196.488281 195.234375 C 197.085938 192.890625 197.320312 190.511719 197.1875 188.097656 C 196.535156 188.125 195.878906 188.136719 195.222656 188.136719 C 195.824219 195.832031 188.773438 204.3125 175.996094 202.917969 C 120.742188 196.886719 124.132812 140.140625 124.132812 140.140625 L 123.785156 140.34375 C 123.375 142.011719 123.03125 143.703125 122.765625 145.421875 C 120.3125 161.292969 124.320312 177.160156 134.039062 190.070312 C 143.753906 202.984375 157.886719 211.214844 173.796875 213.210938 C 176.785156 213.589844 179.789062 213.734375 182.800781 213.648438 C 185.8125 213.5625 188.800781 213.246094 191.765625 212.699219 C 194.730469 212.152344 197.632812 211.378906 200.480469 210.382812 C 203.324219 209.386719 206.078125 208.179688 208.734375 206.757812 C 208.667969 206.757812 208.597656 206.757812 208.523438 206.777344 Z M 208.523438 206.777344 " fill-opacity="1" fill-rule="nonzero"/><path fill="rgb(73.728943%, 74.508667%, 75.289917%)" d="M 225.453125 165.894531 C 219.195312 170.421875 210.359375 171.179688 203.457031 167.65625 C 201.152344 166.480469 198.933594 164.636719 198.097656 162.253906 C 197.636719 163.960938 196.988281 165.597656 196.152344 167.15625 C 195.3125 168.714844 194.3125 170.15625 193.144531 171.484375 C 191.972656 172.8125 190.667969 173.988281 189.230469 175.015625 C 187.789062 176.042969 186.25 176.890625 184.617188 177.5625 C 184.625 177.582031 184.628906 177.605469 184.632812 177.628906 C 184.632812 177.695312 185.730469 183.800781 190.992188 186.765625 C 193.019531 186.9375 195.050781 186.984375 197.082031 186.902344 C 196.726562 183.257812 195.597656 179.875 193.695312 176.746094 C 193.632812 176.605469 193.625 176.464844 193.667969 176.320312 C 193.714844 176.171875 193.800781 176.058594 193.929688 175.980469 C 194.058594 175.902344 194.199219 175.875 194.347656 175.898438 C 194.5 175.925781 194.621094 176 194.714844 176.117188 C 195.878906 178.039062 196.769531 180.078125 197.394531 182.238281 C 198.015625 184.394531 198.347656 186.597656 198.390625 188.84375 C 202.546875 188.710938 206.714844 188.472656 210.753906 187.605469 C 210.652344 186.957031 210.558594 186.308594 210.453125 185.664062 C 209.871094 181.695312 209.316406 177.949219 207.40625 174.542969 C 207.292969 174.398438 207.253906 174.234375 207.292969 174.054688 C 207.328125 173.875 207.425781 173.738281 207.585938 173.648438 C 207.746094 173.558594 207.914062 173.542969 208.085938 173.605469 C 208.261719 173.667969 208.378906 173.785156 208.445312 173.957031 C 210.226562 177.128906 210.902344 180.640625 211.429688 184.101562 C 216.214844 182.386719 220.625 179.980469 224.660156 176.882812 C 224.640625 176.800781 224.640625 176.71875 224.660156 176.632812 C 225.683594 173.109375 225.945312 169.527344 225.453125 165.894531 Z M 225.453125 165.894531 " fill-opacity="1" fill-rule="nonzero"/><path fill="rgb(73.728943%, 74.508667%, 75.289917%)" d="M 198.515625 191.546875 C 198.902344 191.359375 199.300781 191.199219 199.710938 191.0625 C 200.121094 190.925781 200.535156 190.816406 200.957031 190.730469 C 201.378906 190.644531 201.804688 190.589844 202.238281 190.558594 C 202.667969 190.527344 203.097656 190.523438 203.527344 190.546875 C 203.957031 190.570312 204.382812 190.617188 204.808594 190.695312 C 205.230469 190.773438 205.648438 190.875 206.058594 191.003906 C 206.472656 191.136719 206.871094 191.289062 207.265625 191.46875 C 207.65625 191.648438 208.035156 191.851562 208.402344 192.082031 C 208.765625 192.308594 209.117188 192.558594 209.453125 192.828125 C 209.785156 193.101562 210.101562 193.394531 210.402344 193.703125 C 210.699219 194.015625 210.976562 194.34375 211.234375 194.691406 C 211.492188 195.039062 211.726562 195.398438 211.9375 195.773438 C 212.148438 196.152344 212.335938 196.539062 212.5 196.9375 C 212.660156 197.339844 212.800781 197.746094 212.910156 198.164062 C 213.023438 198.578125 213.109375 199 213.167969 199.429688 C 213.226562 199.855469 213.257812 200.285156 213.261719 200.71875 C 213.597656 196.039062 212.792969 191.566406 210.851562 187.296875 C 206.4375 187.390625 202.097656 188.003906 197.835938 189.140625 C 197.59375 189.792969 198.070312 191.015625 198.515625 191.546875 Z M 198.515625 191.546875 " fill-opacity="1" fill-rule="nonzero"/><path fill="rgb(73.728943%, 74.508667%, 75.289917%)" d="M 209.976562 158.257812 L 216.824219 154.925781 L 217.789062 156.59375 L 210.824219 160.0625 Z M 209.976562 158.257812 " fill-opacity="1" fill-rule="nonzero"/><path fill="rgb(73.728943%, 74.508667%, 75.289917%)" d="M 225.304688 161.261719 C 225.652344 161.476562 226.027344 161.582031 226.4375 161.589844 C 226.84375 161.59375 227.222656 161.492188 227.574219 161.285156 C 227.925781 161.082031 228.203125 160.800781 228.398438 160.445312 C 228.597656 160.085938 228.6875 159.703125 228.675781 159.296875 C 230.527344 163.070312 231.136719 167.519531 230.898438 171.71875 C 229.707031 173.5 228.125 174.808594 226.152344 175.644531 C 225.621094 170.898438 225.835938 166.011719 225.304688 161.261719 Z M 225.304688 161.261719 " fill-opacity="1" fill-rule="nonzero"/><path fill="rgb(73.728943%, 74.508667%, 75.289917%)" d="M 227.132812 150.277344 C 227.554688 150.753906 227.996094 151.207031 228.457031 151.640625 C 228.921875 152.074219 229.402344 152.484375 229.90625 152.871094 C 230.40625 153.261719 230.925781 153.625 231.460938 153.960938 C 232 154.300781 232.550781 154.609375 233.117188 154.894531 C 233.683594 155.183594 234.261719 155.441406 234.851562 155.671875 C 235.441406 155.898438 236.042969 156.101562 236.652344 156.273438 C 237.261719 156.449219 237.878906 156.589844 238.5 156.707031 C 239.125 156.820312 239.753906 156.902344 240.382812 156.957031 C 241.015625 157.011719 241.648438 157.039062 242.28125 157.03125 C 242.914062 157.023438 243.546875 156.988281 244.175781 156.921875 C 244.808594 156.855469 245.433594 156.761719 246.054688 156.632812 C 246.675781 156.507812 247.289062 156.351562 247.894531 156.167969 C 248.503906 155.984375 249.097656 155.769531 249.683594 155.53125 C 250.269531 155.289062 250.84375 155.019531 251.40625 154.722656 C 251.964844 154.425781 252.511719 154.105469 253.039062 153.757812 C 253.570312 153.410156 254.082031 153.035156 254.578125 152.640625 C 255.480469 153.773438 256.046875 154.515625 256.953125 155.660156 C 253.097656 158.648438 249.179688 161.722656 245.320312 164.722656 C 244.789062 163.8125 244.140625 162.996094 243.375 162.277344 C 242.570312 161.582031 241.507812 161.117188 240.457031 161.273438 C 238.824219 161.523438 237.792969 163.085938 236.890625 164.492188 C 235.144531 167.195312 233.144531 169.691406 230.890625 171.988281 C 230.636719 172.054688 230.152344 172.042969 229.902344 172.113281 C 231.496094 163.976562 228.535156 155.101562 222.378906 149.554688 C 223.90625 149.828125 225.609375 149.949219 227.132812 150.277344 Z M 227.132812 150.277344 " fill-opacity="1" fill-rule="nonzero"/><path fill="rgb(73.728943%, 74.508667%, 75.289917%)" d="M 250.683594 161.328125 C 250.480469 162.011719 250.375 162.707031 250.363281 163.414062 C 250.355469 164.125 250.441406 164.824219 250.621094 165.511719 C 250.804688 166.199219 251.078125 166.847656 251.4375 167.457031 C 251.796875 168.070312 252.234375 168.621094 252.75 169.109375 C 253.261719 169.601562 253.832031 170.011719 254.457031 170.347656 C 255.085938 170.679688 255.746094 170.921875 256.4375 171.070312 C 257.128906 171.222656 257.832031 171.273438 258.539062 171.230469 C 259.246094 171.1875 259.9375 171.050781 260.605469 170.816406 C 262.847656 170.035156 264.609375 168.257812 266.015625 166.34375 C 265.792969 167.832031 265.292969 169.21875 264.515625 170.503906 C 263.738281 171.792969 262.742188 172.875 261.523438 173.761719 C 260.300781 174.613281 258.957031 175.191406 257.496094 175.496094 C 256.035156 175.800781 254.574219 175.808594 253.113281 175.519531 C 251.707031 175.269531 250.46875 174.675781 249.394531 173.738281 C 248.867188 173.265625 248.464844 172.707031 248.183594 172.058594 C 247.898438 171.410156 247.765625 170.734375 247.78125 170.027344 C 247.886719 168.117188 245.863281 167.007812 246.328125 165.148438 C 246.621094 164.179688 247.199219 163.429688 248.070312 162.910156 C 248.878906 162.359375 249.769531 161.644531 250.683594 161.328125 Z M 250.683594 161.328125 " fill-opacity="1" fill-rule="nonzero"/><path fill="rgb(57.649231%, 58.428955%, 59.609985%)" d="M 255.570312 176.050781 C 253.957031 176.144531 253.316406 176.996094 252.597656 175.550781 C 251.882812 174.101562 252.332031 172.246094 253.398438 171.101562 C 256.195312 168.09375 259.34375 165.480469 263.023438 163.667969 C 264.707031 162.835938 266.882812 163.257812 267.503906 163.855469 C 268.234375 164.5625 267.859375 163.496094 267.667969 164.496094 C 266.632812 169.925781 261.550781 175.707031 255.570312 176.050781 Z M 255.570312 176.050781 " fill-opacity="1" fill-rule="nonzero"/><path fill="rgb(100%, 100%, 100%)" d="M 207.875 153.746094 L 214.644531 150.140625 L 213.882812 148.4375 C 213.882812 148.4375 212.394531 148.234375 212.105469 148.4375 C 211.820312 148.644531 208.605469 150.371094 208.320312 150.550781 C 208.03125 150.734375 207.347656 151.960938 207.347656 151.960938 C 207.304688 152.359375 207.28125 152.765625 207.277344 153.167969 C 207.320312 153.089844 207.875 153.746094 207.875 153.746094 Z M 207.875 153.746094 " fill-opacity="1" fill-rule="nonzero"/><path fill="rgb(100%, 100%, 100%)" d="M 228.125 150.632812 C 228.125 150.632812 238.03125 141.316406 252.234375 150.902344 C 250.363281 148.988281 248.230469 147.4375 245.835938 146.25 C 237.496094 142.152344 228.363281 148.128906 226.300781 149.617188 C 226.910156 149.914062 227.507812 150.246094 228.082031 150.609375 Z M 228.125 150.632812 " fill-opacity="1" fill-rule="nonzero"/><g clip-path="url(#id1)"><path fill="rgb(42.749023%, 43.139648%, 44.309998%)" d="M 266.527344 160.792969 C 264.328125 159.207031 261.933594 159.085938 259.832031 159.585938 C 258.726562 156.808594 254.972656 148.953125 246.539062 144.808594 C 236.625 139.9375 226.195312 147.660156 224.976562 148.601562 C 222.472656 147.652344 219.886719 147.265625 217.210938 147.445312 C 216.457031 147.5 215.707031 147.601562 214.964844 147.75 C 214.746094 147.601562 214.515625 147.480469 214.269531 147.394531 C 213.453125 147.113281 212.667969 147.175781 211.910156 147.582031 L 207.425781 150 C 206.753906 150.363281 206.292969 150.910156 206.042969 151.632812 C 206.019531 151.632812 205.992188 151.65625 205.964844 151.675781 C 203.523438 153.332031 201.285156 155.230469 199.25 157.367188 C 199.265625 157.023438 199.277344 156.675781 199.277344 156.328125 C 199.277344 155.84375 199.265625 155.363281 199.234375 154.882812 C 199.207031 154.402344 199.160156 153.921875 199.101562 153.445312 C 199.042969 152.96875 198.96875 152.492188 198.878906 152.019531 C 198.792969 151.542969 198.6875 151.074219 198.570312 150.605469 C 198.453125 150.140625 198.320312 149.675781 198.175781 149.21875 C 198.027344 148.757812 197.867188 148.304688 197.691406 147.855469 C 197.519531 147.40625 197.328125 146.964844 197.128906 146.527344 C 196.925781 146.089844 196.710938 145.660156 196.484375 145.234375 C 196.253906 144.8125 196.011719 144.394531 195.757812 143.984375 C 195.503906 143.578125 195.238281 143.175781 194.957031 142.785156 C 194.679688 142.390625 194.386719 142.007812 194.085938 141.632812 C 193.78125 141.261719 193.46875 140.894531 193.144531 140.539062 C 192.816406 140.1875 192.480469 139.839844 192.136719 139.507812 C 191.789062 139.175781 191.429688 138.851562 191.066406 138.539062 C 190.699219 138.226562 190.320312 137.925781 189.9375 137.640625 C 189.550781 137.351562 189.15625 137.074219 188.753906 136.808594 C 188.351562 136.546875 187.941406 136.296875 187.523438 136.054688 C 187.105469 135.816406 186.683594 135.59375 186.25 135.378906 C 185.820312 135.167969 185.382812 134.96875 184.9375 134.785156 C 184.492188 134.601562 184.042969 134.429688 183.589844 134.273438 C 183.132812 134.113281 182.675781 133.972656 182.210938 133.84375 C 181.746094 133.714844 181.28125 133.601562 180.808594 133.5 C 180.339844 133.402344 179.867188 133.316406 179.390625 133.246094 C 178.914062 133.175781 178.4375 133.121094 177.957031 133.082031 C 177.476562 133.039062 177 133.015625 176.515625 133.003906 C 176.035156 132.992188 175.554688 132.996094 175.074219 133.015625 C 174.59375 133.035156 174.113281 133.070312 173.636719 133.117188 C 173.15625 133.167969 172.683594 133.230469 172.207031 133.308594 C 171.734375 133.386719 171.261719 133.480469 170.792969 133.585938 C 170.324219 133.695312 169.859375 133.816406 169.398438 133.953125 C 168.9375 134.089844 168.480469 134.242188 168.027344 134.40625 C 167.574219 134.570312 167.128906 134.75 166.6875 134.941406 C 166.664062 134.941406 166.640625 134.910156 166.617188 134.898438 L 166.441406 134.828125 L 166.328125 134.808594 L 166.25 134.808594 C 166.207031 134.808594 166.167969 134.808594 166.128906 134.808594 L 166.058594 134.808594 C 166.007812 134.8125 165.957031 134.824219 165.910156 134.835938 L 165.851562 134.835938 C 157.132812 137.523438 156.453125 142.691406 156.429688 142.914062 C 156.417969 142.984375 156.417969 143.058594 156.429688 143.132812 C 156.429688 143.183594 156.457031 143.382812 156.5 143.675781 C 156.40625 143.746094 156.328125 143.828125 156.261719 143.929688 C 155.382812 145.328125 154.664062 146.804688 154.097656 148.359375 C 153.53125 149.914062 153.136719 151.507812 152.910156 153.144531 C 152.683594 154.785156 152.632812 156.429688 152.753906 158.078125 C 152.878906 159.726562 153.171875 161.34375 153.640625 162.929688 C 152.871094 161.640625 152.164062 160.316406 151.519531 158.960938 C 150.875 157.601562 150.292969 156.21875 149.777344 154.808594 C 149.261719 153.398438 148.8125 151.964844 148.429688 150.515625 C 148.046875 149.0625 147.730469 147.59375 147.484375 146.113281 C 147.238281 144.628906 147.0625 143.140625 146.957031 141.640625 C 146.851562 140.140625 146.8125 138.640625 146.847656 137.140625 C 146.878906 135.636719 146.984375 134.140625 147.15625 132.648438 C 147.328125 131.15625 147.570312 129.675781 147.882812 128.203125 C 148.191406 126.734375 148.570312 125.28125 149.019531 123.847656 C 149.464844 122.414062 149.976562 121.003906 150.554688 119.617188 C 151.132812 118.230469 151.773438 116.875 152.480469 115.546875 C 153.183594 114.222656 153.949219 112.929688 154.773438 111.675781 C 155.597656 110.421875 156.480469 109.207031 157.417969 108.035156 C 158.355469 106.863281 159.347656 105.734375 160.390625 104.65625 C 161.433594 103.578125 162.523438 102.546875 163.664062 101.570312 C 164.800781 100.59375 165.984375 99.671875 167.210938 98.804688 C 167.382812 98.6875 167.527344 98.546875 167.648438 98.378906 C 167.769531 98.207031 167.859375 98.023438 167.914062 97.824219 C 167.96875 97.625 167.988281 97.421875 167.96875 97.214844 C 167.953125 97.007812 167.902344 96.8125 167.8125 96.621094 C 167.726562 96.433594 167.613281 96.265625 167.46875 96.121094 C 167.324219 95.972656 167.160156 95.855469 166.972656 95.765625 C 166.785156 95.679688 166.589844 95.628906 166.382812 95.609375 C 166.179688 95.59375 165.976562 95.613281 165.777344 95.667969 C 164.355469 96.042969 162.953125 96.464844 161.5625 96.941406 C 160.171875 97.414062 158.800781 97.941406 157.449219 98.515625 C 156.097656 99.089844 154.765625 99.710938 153.460938 100.382812 C 152.152344 101.054688 150.875 101.773438 149.617188 102.535156 C 148.363281 103.300781 147.136719 104.109375 145.941406 104.964844 C 144.746094 105.816406 143.582031 106.714844 142.453125 107.652344 C 141.320312 108.589844 140.226562 109.566406 139.164062 110.585938 C 138.105469 111.605469 137.082031 112.660156 136.097656 113.75 C 135.113281 114.84375 134.171875 115.96875 133.269531 117.128906 C 132.367188 118.292969 131.507812 119.484375 130.695312 120.707031 C 129.878906 121.929688 129.109375 123.179688 128.382812 124.460938 C 127.65625 125.738281 126.980469 127.042969 126.351562 128.371094 C 125.71875 129.699219 125.136719 131.050781 124.605469 132.421875 C 124.074219 133.792969 123.589844 135.179688 123.160156 136.585938 C 122.726562 137.992188 122.347656 139.410156 122.015625 140.84375 C 121.6875 142.277344 121.410156 143.722656 121.1875 145.175781 C 118.671875 161.484375 122.785156 177.765625 132.777344 191.03125 C 142.769531 204.296875 157.257812 212.738281 173.609375 214.796875 C 176.15625 215.117188 178.710938 215.277344 181.277344 215.28125 C 183.085938 215.273438 184.894531 215.191406 186.695312 215.023438 C 188.496094 214.859375 190.289062 214.613281 192.066406 214.285156 C 193.847656 213.960938 195.609375 213.554688 197.355469 213.070312 C 199.097656 212.589844 200.816406 212.027344 202.511719 211.390625 C 204.203125 210.75 205.867188 210.039062 207.496094 209.253906 C 209.125 208.464844 210.71875 207.609375 212.269531 206.679688 C 213.824219 205.75 215.335938 204.753906 216.796875 203.6875 C 218.261719 202.625 219.675781 201.496094 221.042969 200.304688 C 222.40625 199.113281 223.714844 197.863281 224.964844 196.554688 C 226.21875 195.25 227.410156 193.886719 228.539062 192.472656 C 229.671875 191.058594 230.738281 189.59375 231.738281 188.082031 C 232.738281 186.574219 233.667969 185.019531 234.527344 183.429688 C 235.390625 181.835938 236.179688 180.203125 236.894531 178.539062 C 237.613281 176.875 238.253906 175.183594 238.816406 173.460938 C 239.382812 171.738281 239.871094 169.996094 240.277344 168.230469 C 240.6875 166.464844 241.019531 164.683594 241.269531 162.890625 C 241.28125 162.789062 241.285156 162.691406 241.285156 162.589844 C 242.304688 162.855469 243.667969 163.613281 244.832031 165.625 C 245.625 167 245.980469 168.492188 246.320312 169.929688 C 247.078125 173.125 247.859375 176.429688 253.511719 176.859375 C 253.707031 176.875 253.894531 176.882812 254.089844 176.882812 C 259.492188 176.882812 266.023438 171.375 267.777344 166.5625 C 268.679688 164.082031 268.234375 162.03125 266.527344 160.792969 Z M 221.191406 149.640625 C 221.207031 149.65625 221.222656 149.671875 221.242188 149.683594 C 221.671875 150.003906 231.710938 157.640625 229.101562 172.484375 C 228.355469 173.230469 227.589844 173.945312 226.800781 174.632812 C 228.421875 166.136719 225.894531 159.621094 223.328125 155.53125 C 221.90625 153.25 220.195312 151.210938 218.203125 149.414062 C 219.203125 149.398438 220.199219 149.472656 221.191406 149.640625 Z M 208.378906 151.753906 L 212.859375 149.339844 C 213.101562 149.203125 213.359375 149.183594 213.621094 149.277344 C 213.886719 149.367188 214.074219 149.539062 214.183594 149.796875 L 216.769531 155.789062 C 216.851562 155.972656 216.855469 156.15625 216.785156 156.339844 C 216.714844 156.527344 216.589844 156.660156 216.40625 156.742188 L 211.582031 158.996094 C 211.394531 159.082031 211.207031 159.089844 211.011719 159.015625 C 210.808594 158.933594 210.667969 158.789062 210.585938 158.582031 L 207.964844 152.996094 C 207.859375 152.765625 207.84375 152.535156 207.921875 152.296875 C 208.003906 152.054688 208.152344 151.875 208.375 151.757812 Z M 199.332031 160.273438 C 201.375 157.882812 203.667969 155.769531 206.214844 153.929688 L 208.761719 159.386719 C 208.972656 159.890625 209.308594 160.292969 209.765625 160.59375 C 210.222656 160.898438 210.722656 161.050781 211.269531 161.050781 C 211.671875 161.050781 212.050781 160.964844 212.414062 160.792969 L 217.238281 158.542969 C 217.5625 158.394531 217.84375 158.191406 218.085938 157.929688 C 218.332031 157.671875 218.515625 157.375 218.640625 157.042969 C 218.769531 156.710938 218.828125 156.367188 218.820312 156.011719 C 218.8125 155.65625 218.734375 155.316406 218.59375 154.988281 L 216.804688 150.851562 C 220.167969 153.871094 228.09375 162.734375 224.3125 176.523438 C 224.296875 176.574219 224.289062 176.625 224.285156 176.679688 C 220.457031 179.597656 216.285156 181.890625 211.769531 183.558594 C 211.238281 180.222656 210.546875 176.855469 208.828125 173.761719 C 208.761719 173.644531 208.675781 173.546875 208.570312 173.464844 C 208.46875 173.378906 208.351562 173.320312 208.222656 173.285156 C 208.09375 173.25 207.964844 173.238281 207.832031 173.253906 C 207.703125 173.269531 207.578125 173.3125 207.460938 173.375 C 207.34375 173.441406 207.246094 173.527344 207.164062 173.628906 C 207.082031 173.734375 207.023438 173.851562 206.988281 173.980469 C 206.949219 174.109375 206.941406 174.238281 206.957031 174.371094 C 206.972656 174.503906 207.011719 174.625 207.078125 174.742188 C 208.957031 178.082031 209.488281 181.796875 210.09375 185.726562 L 210.191406 186.417969 L 198.757812 187.761719 C 198.507812 183.507812 197.277344 179.554688 195.066406 175.910156 C 194.921875 175.679688 194.714844 175.535156 194.449219 175.472656 C 194.183594 175.410156 193.933594 175.449219 193.703125 175.59375 C 193.46875 175.738281 193.320312 175.941406 193.257812 176.207031 C 193.191406 176.472656 193.230469 176.722656 193.371094 176.957031 C 195.15625 179.90625 196.242188 183.09375 196.632812 186.523438 C 194.789062 186.578125 192.949219 186.53125 191.113281 186.378906 C 186.664062 183.824219 185.332031 178.9375 185.082031 177.808594 C 186.847656 177.054688 188.5 176.09375 190.03125 174.929688 C 191.566406 173.765625 192.933594 172.433594 194.136719 170.933594 C 195.339844 169.429688 196.34375 167.804688 197.148438 166.054688 C 197.953125 164.304688 198.53125 162.484375 198.886719 160.59375 C 199.0625 160.527344 199.207031 160.421875 199.320312 160.273438 Z M 212.550781 200.523438 C 212.210938 202.636719 210.640625 204.980469 208.390625 205.183594 C 206.046875 205.402344 203.796875 202.976562 202.15625 201.210938 C 201.871094 200.90625 201.53125 200.8125 201.132812 200.9375 C 200.734375 201.058594 200.503906 201.324219 200.441406 201.734375 C 200.371094 202.042969 200.1875 202.257812 199.898438 202.375 C 199.433594 202.609375 198.96875 202.613281 198.5 202.390625 C 197.53125 201.859375 197.195312 200.554688 197.203125 199.601562 C 197.273438 198.546875 197.472656 197.519531 197.808594 196.515625 C 197.886719 196.214844 197.972656 195.914062 198.046875 195.628906 C 198.539062 193.703125 198.792969 191.746094 198.816406 189.761719 L 210.515625 188.382812 C 210.761719 189.957031 211.097656 191.511719 211.523438 193.046875 C 212.171875 195.390625 212.9375 198.042969 212.539062 200.523438 Z M 183.191406 178.507812 C 183.886719 181.339844 185.242188 183.8125 187.257812 185.917969 C 180.316406 184.78125 173.9375 182.234375 168.113281 178.28125 C 170.546875 179.160156 173.050781 179.617188 175.636719 179.652344 C 178.21875 179.691406 180.738281 179.308594 183.191406 178.507812 Z M 197.285156 156.316406 C 197.285156 156.484375 197.285156 156.648438 197.285156 156.8125 C 192.21875 163.871094 184.242188 163.761719 182.390625 163.625 C 182.226562 160.890625 180.347656 157.988281 177.265625 156.210938 C 175.269531 155.019531 173.117188 154.527344 170.800781 154.742188 C 169.839844 154.847656 168.9375 155.128906 168.085938 155.59375 C 166.523438 153.441406 162.359375 146.394531 166.578125 137.1875 C 166.984375 136.988281 167.394531 136.800781 167.808594 136.628906 C 168.222656 136.453125 168.644531 136.292969 169.070312 136.148438 C 169.496094 136 169.925781 135.867188 170.359375 135.75 C 170.792969 135.628906 171.230469 135.523438 171.671875 135.433594 C 172.113281 135.339844 172.554688 135.261719 173.003906 135.199219 C 173.449219 135.136719 173.894531 135.085938 174.34375 135.054688 C 174.792969 135.019531 175.242188 134.996094 175.691406 134.992188 C 176.140625 134.984375 176.59375 134.992188 177.042969 135.015625 C 177.492188 135.035156 177.941406 135.074219 178.386719 135.125 C 178.835938 135.175781 179.28125 135.238281 179.722656 135.316406 C 180.167969 135.398438 180.605469 135.488281 181.042969 135.597656 C 181.480469 135.703125 181.914062 135.824219 182.34375 135.960938 C 182.773438 136.09375 183.199219 136.242188 183.621094 136.402344 C 184.039062 136.566406 184.453125 136.738281 184.863281 136.925781 C 185.273438 137.113281 185.675781 137.316406 186.074219 137.527344 C 186.46875 137.742188 186.859375 137.96875 187.242188 138.207031 C 187.621094 138.445312 187.996094 138.695312 188.363281 138.957031 C 188.730469 139.21875 189.085938 139.492188 189.4375 139.777344 C 189.785156 140.0625 190.125 140.355469 190.457031 140.664062 C 190.785156 140.96875 191.105469 141.285156 191.417969 141.613281 C 191.726562 141.9375 192.027344 142.273438 192.316406 142.621094 C 192.605469 142.964844 192.882812 143.320312 193.148438 143.683594 C 193.417969 144.046875 193.671875 144.417969 193.914062 144.796875 C 194.15625 145.175781 194.386719 145.5625 194.605469 145.957031 C 194.824219 146.351562 195.03125 146.753906 195.222656 147.160156 C 195.417969 147.566406 195.597656 147.980469 195.765625 148.398438 C 195.933594 148.816406 196.085938 149.242188 196.226562 149.667969 C 196.367188 150.097656 196.492188 150.53125 196.605469 150.96875 C 196.71875 151.402344 196.816406 151.84375 196.902344 152.285156 C 196.988281 152.730469 197.058594 153.171875 197.113281 153.621094 C 197.171875 154.066406 197.214844 154.515625 197.242188 154.96875 C 197.269531 155.417969 197.285156 155.867188 197.285156 156.316406 Z M 167.59375 158.734375 C 168.234375 157.621094 169.457031 156.90625 171.03125 156.726562 C 171.296875 156.695312 171.566406 156.679688 171.832031 156.679688 C 173.417969 156.710938 174.894531 157.132812 176.257812 157.949219 C 179.65625 159.914062 181.296875 163.46875 179.910156 165.875 C 179.265625 166.988281 178.046875 167.703125 176.472656 167.882812 C 174.59375 168.050781 172.847656 167.648438 171.234375 166.675781 C 167.847656 164.703125 166.207031 161.152344 167.59375 158.734375 Z M 164.277344 137.519531 C 160.5 147.054688 164.878906 154.503906 166.542969 156.832031 C 166.488281 156.890625 166.433594 156.953125 166.382812 157.015625 C 160.050781 154.160156 158.589844 144.285156 158.429688 143.035156 C 158.539062 142.464844 159.367188 139.628906 164.261719 137.527344 Z M 157.070312 146.527344 C 158.023438 150.375 160.296875 156.367188 165.421875 158.765625 C 164.355469 162.011719 166.328125 166.121094 170.261719 168.386719 C 171.9375 169.378906 173.746094 169.886719 175.691406 169.914062 C 176.035156 169.917969 176.375 169.898438 176.71875 169.859375 C 178.933594 169.601562 180.6875 168.539062 181.652344 166.863281 C 181.878906 166.46875 182.054688 166.050781 182.179688 165.613281 C 182.464844 165.632812 182.882812 165.652344 183.410156 165.652344 C 186.257812 165.652344 192.1875 165.019531 196.910156 160.320312 C 196.769531 161.070312 196.585938 161.808594 196.363281 162.539062 C 196.140625 163.269531 195.882812 163.984375 195.582031 164.6875 C 195.285156 165.386719 194.949219 166.070312 194.578125 166.738281 C 194.203125 167.402344 193.796875 168.046875 193.355469 168.667969 C 192.917969 169.289062 192.445312 169.886719 191.9375 170.457031 C 191.433594 171.03125 190.898438 171.574219 190.335938 172.085938 C 189.773438 172.601562 189.183594 173.082031 188.570312 173.53125 C 187.957031 173.984375 187.320312 174.398438 186.660156 174.78125 C 186 175.164062 185.324219 175.511719 184.625 175.820312 C 183.929688 176.128906 183.21875 176.398438 182.496094 176.632812 C 181.769531 176.867188 181.03125 177.058594 180.289062 177.214844 C 179.542969 177.367188 178.789062 177.480469 178.03125 177.554688 C 177.273438 177.628906 176.511719 177.660156 175.75 177.652344 C 174.988281 177.640625 174.230469 177.59375 173.472656 177.503906 C 172.71875 177.414062 171.96875 177.28125 171.226562 177.113281 C 170.484375 176.941406 169.753906 176.730469 169.03125 176.480469 C 168.3125 176.234375 167.609375 175.945312 166.917969 175.621094 C 166.230469 175.296875 165.558594 174.933594 164.910156 174.539062 C 164.257812 174.140625 163.632812 173.710938 163.027344 173.246094 C 162.421875 172.78125 161.84375 172.289062 161.292969 171.761719 C 160.742188 171.234375 160.21875 170.679688 159.730469 170.097656 C 159.238281 169.515625 158.777344 168.910156 158.351562 168.277344 C 157.921875 167.644531 157.53125 166.992188 157.175781 166.316406 C 156.816406 165.644531 156.496094 164.953125 156.214844 164.246094 C 155.929688 163.535156 155.6875 162.816406 155.480469 162.082031 C 155.277344 161.347656 155.109375 160.601562 154.984375 159.851562 C 154.859375 159.097656 154.773438 158.339844 154.726562 157.578125 C 154.683594 156.816406 154.675781 156.054688 154.714844 155.292969 C 154.75 154.53125 154.828125 153.773438 154.945312 153.019531 C 155.0625 152.265625 155.222656 151.523438 155.417969 150.785156 C 155.617188 150.046875 155.851562 149.324219 156.128906 148.613281 C 156.402344 147.902344 156.714844 147.207031 157.066406 146.527344 Z M 173.871094 212.804688 C 158.066406 210.816406 144.039062 202.652344 134.367188 189.820312 C 124.691406 176.988281 120.722656 161.246094 123.15625 145.480469 C 123.582031 142.71875 124.203125 140.003906 125.015625 137.332031 C 125.828125 134.65625 126.828125 132.058594 128.011719 129.527344 C 129.195312 126.996094 130.550781 124.5625 132.078125 122.226562 C 133.609375 119.890625 135.296875 117.675781 137.140625 115.578125 C 138.988281 113.484375 140.972656 111.53125 143.09375 109.71875 C 145.21875 107.90625 147.457031 106.253906 149.816406 104.761719 C 152.175781 103.269531 154.628906 101.953125 157.171875 100.8125 C 159.71875 99.667969 162.332031 98.714844 165.015625 97.945312 C 162.359375 99.9375 159.925781 102.171875 157.710938 104.648438 C 155.496094 107.121094 153.546875 109.789062 151.859375 112.648438 C 150.167969 115.507812 148.777344 118.503906 147.679688 121.640625 C 146.582031 124.777344 145.800781 127.988281 145.335938 131.277344 C 141.503906 158.746094 160.699219 184.214844 188.125 188.0625 C 191 188.464844 193.886719 188.617188 196.789062 188.523438 C 196.875 190.761719 196.644531 192.96875 196.089844 195.140625 C 196.019531 195.425781 195.941406 195.710938 195.863281 195.992188 C 195.480469 197.164062 195.261719 198.363281 195.203125 199.589844 C 195.183594 201.171875 195.785156 203.199219 197.53125 204.15625 C 198.039062 204.417969 198.578125 204.550781 199.144531 204.554688 C 199.714844 204.558594 200.257812 204.433594 200.765625 204.175781 C 201.082031 204.023438 201.367188 203.820312 201.617188 203.570312 C 203.078125 205.082031 204.960938 206.738281 207.148438 207.121094 C 202.003906 209.695312 196.597656 211.46875 190.925781 212.4375 C 185.253906 213.410156 179.566406 213.535156 173.859375 212.816406 Z M 239.3125 162.605469 C 236.898438 179.785156 227.179688 194.265625 213.71875 203.289062 C 214.113281 202.511719 214.378906 201.691406 214.523438 200.832031 C 214.992188 197.910156 214.160156 195.03125 213.429688 192.488281 C 212.828125 190.210938 212.378906 187.902344 212.085938 185.566406 C 214.9375 184.539062 217.671875 183.265625 220.289062 181.742188 C 222.910156 180.222656 225.371094 178.476562 227.679688 176.511719 C 229.984375 174.542969 232.09375 172.382812 234.007812 170.035156 C 235.921875 167.683594 237.609375 165.179688 239.074219 162.523438 C 239.097656 162.480469 239.121094 162.433594 239.222656 162.46875 C 239.328125 162.5 239.300781 162.566406 239.285156 162.617188 Z M 239.558594 160.492188 C 239.113281 160.40625 238.683594 160.460938 238.269531 160.65625 C 237.859375 160.851562 237.542969 161.152344 237.328125 161.550781 C 235.664062 164.574219 233.699219 167.382812 231.433594 169.980469 C 231.585938 168.261719 231.566406 166.550781 231.375 164.835938 C 231.183594 163.125 230.828125 161.449219 230.300781 159.808594 C 229.773438 158.167969 229.089844 156.597656 228.25 155.09375 C 227.40625 153.589844 226.425781 152.1875 225.304688 150.882812 C 228 152.117188 230.230469 153.929688 231.992188 156.316406 C 232.066406 156.425781 232.160156 156.519531 232.269531 156.59375 C 232.378906 156.664062 232.5 156.714844 232.628906 156.738281 C 232.757812 156.765625 232.886719 156.765625 233.015625 156.738281 C 233.144531 156.710938 233.265625 156.660156 233.375 156.585938 C 233.484375 156.511719 233.574219 156.421875 233.648438 156.3125 C 233.722656 156.203125 233.769531 156.082031 233.796875 155.953125 C 233.820312 155.820312 233.820312 155.691406 233.792969 155.5625 C 233.769531 155.433594 233.71875 155.3125 233.644531 155.203125 C 231.894531 152.8125 229.707031 150.925781 227.089844 149.546875 C 229.855469 147.679688 238.132812 142.882812 245.675781 146.59375 C 250.40625 148.917969 253.574219 152.59375 255.554688 155.675781 L 245.917969 163.640625 C 243.460938 160.246094 240.441406 160.382812 239.542969 160.511719 Z M 265.917969 165.859375 C 264.382812 170.089844 258.164062 175.195312 253.679688 174.855469 C 249.476562 174.535156 249 172.511719 248.273438 169.449219 C 247.980469 168.046875 247.539062 166.6875 246.949219 165.378906 L 256.574219 157.421875 C 257.078125 158.335938 257.53125 159.273438 257.929688 160.234375 C 256.835938 160.707031 255.828125 161.324219 254.914062 162.09375 C 254.816406 162.179688 254.734375 162.28125 254.675781 162.398438 C 254.617188 162.519531 254.582031 162.644531 254.574219 162.777344 C 254.5625 162.90625 254.578125 163.035156 254.621094 163.160156 C 254.660156 163.289062 254.726562 163.402344 254.8125 163.5 C 254.898438 163.601562 255 163.679688 255.117188 163.738281 C 255.238281 163.800781 255.363281 163.832031 255.492188 163.84375 C 255.625 163.851562 255.753906 163.835938 255.878906 163.796875 C 256.003906 163.753906 256.117188 163.691406 256.21875 163.601562 C 257.105469 162.878906 258.078125 162.304688 259.140625 161.878906 L 259.230469 161.878906 C 259.332031 161.878906 259.433594 161.863281 259.53125 161.832031 C 259.675781 161.785156 259.800781 161.710938 259.910156 161.605469 C 261.542969 161.125 263.507812 161.074219 265.339844 162.40625 C 266.3125 163.097656 266.492188 164.265625 265.902344 165.878906 Z M 265.917969 165.859375 " fill-opacity="1" fill-rule="nonzero"/></g><path fill="rgb(42.749023%, 43.139648%, 44.309998%)" d="M 152.511719 174.628906 C 152.742188 174.277344 152.917969 173.898438 153.042969 173.5 C 153.121094 173.238281 153.097656 172.984375 152.96875 172.742188 C 152.84375 172.5 152.648438 172.339844 152.386719 172.257812 C 152.128906 172.171875 151.875 172.195312 151.632812 172.320312 C 151.390625 172.441406 151.226562 172.632812 151.140625 172.894531 C 151.070312 173.121094 150.96875 173.335938 150.835938 173.535156 C 150.714844 173.722656 150.570312 173.894531 150.40625 174.042969 C 150.242188 174.195312 150.058594 174.324219 149.859375 174.425781 C 149.660156 174.53125 149.453125 174.609375 149.234375 174.660156 C 149.015625 174.707031 148.792969 174.730469 148.570312 174.722656 C 148.34375 174.714844 148.125 174.679688 147.910156 174.613281 C 147.695312 174.550781 147.492188 174.460938 147.300781 174.34375 C 147.109375 174.226562 146.933594 174.085938 146.78125 173.921875 C 146.625 173.761719 146.492188 173.582031 146.382812 173.386719 C 146.273438 173.191406 146.191406 172.984375 146.136719 172.765625 C 146.082031 172.546875 146.054688 172.328125 146.054688 172.101562 C 146.058594 171.875 146.085938 171.65625 146.144531 171.4375 C 146.203125 171.222656 146.289062 171.015625 146.402344 170.820312 C 146.515625 170.628906 146.648438 170.449219 146.804688 170.289062 C 146.964844 170.128906 147.140625 169.992188 147.332031 169.878906 C 147.527344 169.765625 147.730469 169.675781 147.945312 169.617188 C 148.160156 169.554688 148.382812 169.519531 148.605469 169.515625 C 148.878906 169.511719 149.113281 169.40625 149.304688 169.210938 C 149.496094 169.011719 149.585938 168.773438 149.582031 168.5 C 149.582031 168.367188 149.554688 168.238281 149.503906 168.117188 C 149.449219 167.996094 149.375 167.886719 149.28125 167.796875 C 149.183594 167.703125 149.074219 167.632812 148.953125 167.585938 C 148.828125 167.539062 148.699219 167.515625 148.566406 167.519531 C 148.371094 167.523438 148.171875 167.539062 147.976562 167.570312 C 147.78125 167.597656 147.589844 167.640625 147.402344 167.695312 C 147.210938 167.75 147.023438 167.8125 146.84375 167.890625 C 146.664062 167.96875 146.488281 168.058594 146.316406 168.160156 C 146.148438 168.261719 145.984375 168.371094 145.828125 168.492188 C 145.671875 168.613281 145.527344 168.746094 145.386719 168.886719 C 145.25 169.027344 145.121094 169.175781 145 169.332031 C 144.878906 169.488281 144.773438 169.652344 144.671875 169.824219 C 144.574219 169.996094 144.488281 170.171875 144.414062 170.355469 C 144.335938 170.539062 144.273438 170.726562 144.222656 170.917969 C 144.167969 171.105469 144.128906 171.300781 144.105469 171.496094 C 144.078125 171.691406 144.0625 171.886719 144.0625 172.085938 C 144.058594 172.285156 144.070312 172.480469 144.09375 172.675781 C 144.117188 172.871094 144.15625 173.066406 144.203125 173.257812 C 144.253906 173.449219 144.3125 173.636719 144.386719 173.820312 C 144.460938 174.003906 144.542969 174.183594 144.640625 174.355469 C 144.734375 174.527344 144.84375 174.695312 144.960938 174.851562 C 145.078125 175.011719 145.203125 175.164062 145.339844 175.304688 C 145.476562 175.449219 145.621094 175.582031 145.777344 175.703125 C 145.929688 175.828125 146.089844 175.941406 146.257812 176.046875 C 146.425781 176.148438 146.601562 176.238281 146.78125 176.320312 C 146.960938 176.402344 147.144531 176.46875 147.335938 176.527344 C 147.523438 176.582031 147.714844 176.628906 147.910156 176.660156 C 148.105469 176.691406 148.300781 176.710938 148.5 176.71875 C 148.695312 176.722656 148.894531 176.71875 149.089844 176.699219 C 149.285156 176.679688 149.480469 176.648438 149.671875 176.605469 C 149.863281 176.5625 150.054688 176.503906 150.238281 176.4375 C 150.425781 176.371094 150.605469 176.289062 150.777344 176.199219 C 150.953125 176.105469 151.121094 176.003906 151.285156 175.890625 C 151.445312 175.777344 151.597656 175.65625 151.746094 175.523438 C 151.890625 175.390625 152.027344 175.246094 152.15625 175.097656 C 152.285156 174.945312 152.402344 174.789062 152.507812 174.621094 Z M 152.511719 174.628906 " fill-opacity="1" fill-rule="nonzero"/><path fill="rgb(42.749023%, 43.139648%, 44.309998%)" d="M 173.917969 191.71875 C 173.789062 191.707031 173.660156 191.71875 173.53125 191.757812 C 173.40625 191.796875 173.292969 191.859375 173.191406 191.945312 C 173.089844 192.03125 173.007812 192.132812 172.945312 192.25 C 172.882812 192.367188 172.847656 192.492188 172.835938 192.625 C 172.8125 192.863281 172.757812 193.09375 172.671875 193.316406 C 172.589844 193.523438 172.484375 193.722656 172.355469 193.902344 C 172.222656 194.085938 172.070312 194.25 171.898438 194.390625 C 171.726562 194.535156 171.539062 194.652344 171.332031 194.746094 C 171.128906 194.839844 170.917969 194.90625 170.699219 194.945312 C 170.476562 194.988281 170.253906 194.996094 170.03125 194.976562 C 169.808594 194.960938 169.589844 194.914062 169.378906 194.839844 C 169.167969 194.765625 168.96875 194.664062 168.78125 194.539062 C 168.597656 194.410156 168.429688 194.261719 168.285156 194.09375 C 168.136719 193.925781 168.011719 193.738281 167.914062 193.539062 C 167.8125 193.335938 167.742188 193.125 167.695312 192.90625 C 167.652344 192.683594 167.636719 192.464844 167.648438 192.238281 C 167.660156 192.015625 167.703125 191.796875 167.769531 191.582031 C 167.839844 191.367188 167.933594 191.167969 168.054688 190.976562 C 168.175781 190.789062 168.320312 190.617188 168.484375 190.464844 C 168.648438 190.3125 168.832031 190.1875 169.03125 190.082031 C 169.230469 189.976562 169.4375 189.898438 169.65625 189.847656 C 169.910156 189.773438 170.109375 189.625 170.242188 189.394531 C 170.378906 189.164062 170.414062 188.917969 170.355469 188.660156 C 170.292969 188.398438 170.152344 188.195312 169.929688 188.050781 C 169.707031 187.902344 169.464844 187.855469 169.203125 187.902344 C 169.011719 187.945312 168.824219 188.003906 168.636719 188.074219 C 168.453125 188.140625 168.273438 188.222656 168.097656 188.316406 C 167.925781 188.40625 167.757812 188.511719 167.59375 188.625 C 167.433594 188.738281 167.28125 188.863281 167.136719 188.996094 C 166.992188 189.128906 166.855469 189.273438 166.726562 189.425781 C 166.601562 189.574219 166.484375 189.734375 166.378906 189.902344 C 166.269531 190.066406 166.175781 190.238281 166.089844 190.417969 C 166.007812 190.597656 165.933594 190.78125 165.875 190.96875 C 165.8125 191.15625 165.765625 191.347656 165.730469 191.542969 C 165.691406 191.738281 165.667969 191.933594 165.660156 192.128906 C 165.648438 192.328125 165.648438 192.523438 165.664062 192.722656 C 165.679688 192.917969 165.707031 193.113281 165.746094 193.308594 C 165.785156 193.5 165.835938 193.691406 165.902344 193.878906 C 165.964844 194.066406 166.042969 194.246094 166.128906 194.425781 C 166.214844 194.601562 166.316406 194.773438 166.425781 194.9375 C 166.535156 195.101562 166.652344 195.257812 166.785156 195.40625 C 166.914062 195.554688 167.050781 195.695312 167.199219 195.828125 C 167.347656 195.957031 167.503906 196.078125 167.664062 196.1875 C 167.828125 196.300781 168 196.398438 168.175781 196.488281 C 168.351562 196.578125 168.53125 196.65625 168.71875 196.722656 C 168.90625 196.785156 169.09375 196.839844 169.289062 196.882812 C 169.480469 196.921875 169.675781 196.953125 169.871094 196.96875 C 170.066406 196.984375 170.265625 196.988281 170.460938 196.976562 C 170.660156 196.96875 170.855469 196.945312 171.050781 196.910156 C 171.242188 196.878906 171.433594 196.828125 171.625 196.769531 C 171.8125 196.710938 171.996094 196.640625 172.175781 196.558594 C 172.351562 196.472656 172.527344 196.378906 172.691406 196.273438 C 172.859375 196.167969 173.019531 196.054688 173.171875 195.925781 C 173.324219 195.800781 173.46875 195.667969 173.601562 195.523438 C 173.734375 195.378906 173.859375 195.226562 173.976562 195.066406 C 174.089844 194.902344 174.195312 194.738281 174.289062 194.5625 C 174.382812 194.390625 174.464844 194.210938 174.535156 194.023438 C 174.683594 193.632812 174.777344 193.230469 174.820312 192.816406 C 174.832031 192.683594 174.820312 192.554688 174.78125 192.425781 C 174.746094 192.296875 174.683594 192.183594 174.597656 192.078125 C 174.515625 191.976562 174.414062 191.890625 174.296875 191.828125 C 174.179688 191.765625 174.050781 191.730469 173.917969 191.71875 Z M 173.917969 191.71875 " fill-opacity="1" fill-rule="nonzero"/><path fill="rgb(42.749023%, 43.139648%, 44.309998%)" d="M 135.511719 168.859375 C 135.390625 168.804688 135.265625 168.777344 135.132812 168.773438 C 135 168.769531 134.875 168.789062 134.75 168.839844 C 134.625 168.886719 134.515625 168.953125 134.421875 169.046875 C 134.324219 169.136719 134.25 169.242188 134.195312 169.363281 C 134.101562 169.582031 133.976562 169.785156 133.824219 169.96875 C 133.679688 170.140625 133.515625 170.292969 133.335938 170.421875 C 133.152344 170.554688 132.957031 170.660156 132.746094 170.738281 C 132.539062 170.820312 132.320312 170.871094 132.097656 170.894531 C 131.875 170.917969 131.652344 170.914062 131.429688 170.878906 C 131.210938 170.847656 130.996094 170.785156 130.789062 170.695312 C 130.585938 170.605469 130.394531 170.492188 130.21875 170.355469 C 130.039062 170.214844 129.882812 170.054688 129.75 169.878906 C 129.613281 169.699219 129.503906 169.503906 129.417969 169.296875 C 129.332031 169.089844 129.273438 168.875 129.246094 168.652344 C 129.214844 168.429688 129.214844 168.207031 129.242188 167.984375 C 129.269531 167.761719 129.324219 167.546875 129.410156 167.335938 C 129.492188 167.128906 129.601562 166.933594 129.734375 166.753906 C 129.867188 166.574219 130.023438 166.414062 130.199219 166.273438 C 130.371094 166.132812 130.5625 166.015625 130.769531 165.925781 C 130.972656 165.835938 131.1875 165.769531 131.40625 165.734375 C 131.628906 165.699219 131.851562 165.691406 132.074219 165.714844 C 132.207031 165.726562 132.335938 165.714844 132.460938 165.675781 C 132.585938 165.636719 132.699219 165.574219 132.804688 165.492188 C 132.90625 165.40625 132.988281 165.308594 133.046875 165.191406 C 133.109375 165.074219 133.148438 164.949219 133.160156 164.816406 C 133.171875 164.6875 133.160156 164.558594 133.121094 164.429688 C 133.082031 164.304688 133.019531 164.191406 132.9375 164.085938 C 132.851562 163.984375 132.753906 163.902344 132.636719 163.84375 C 132.519531 163.78125 132.394531 163.742188 132.265625 163.730469 C 131.953125 163.699219 131.644531 163.703125 131.335938 163.734375 C 131.027344 163.769531 130.726562 163.832031 130.429688 163.925781 C 130.132812 164.019531 129.851562 164.144531 129.578125 164.296875 C 129.308594 164.449219 129.054688 164.625 128.820312 164.828125 C 128.585938 165.03125 128.375 165.257812 128.183594 165.503906 C 127.996094 165.75 127.832031 166.011719 127.695312 166.292969 C 127.558594 166.574219 127.453125 166.863281 127.375 167.164062 C 127.296875 167.464844 127.253906 167.773438 127.238281 168.082031 C 127.222656 168.394531 127.238281 168.703125 127.285156 169.007812 C 127.332031 169.316406 127.410156 169.617188 127.519531 169.90625 C 127.625 170.199219 127.761719 170.476562 127.925781 170.742188 C 128.089844 171.003906 128.28125 171.25 128.492188 171.476562 C 128.707031 171.703125 128.941406 171.902344 129.195312 172.082031 C 129.449219 172.257812 129.71875 172.410156 130.007812 172.535156 C 130.292969 172.65625 130.585938 172.75 130.890625 172.8125 C 131.195312 172.875 131.5 172.910156 131.8125 172.910156 C 131.960938 172.910156 132.113281 172.910156 132.253906 172.886719 C 133.519531 172.769531 134.554688 172.21875 135.359375 171.238281 C 135.628906 170.914062 135.847656 170.558594 136.019531 170.175781 C 136.074219 170.054688 136.101562 169.929688 136.105469 169.796875 C 136.109375 169.664062 136.085938 169.535156 136.039062 169.410156 C 135.992188 169.289062 135.921875 169.179688 135.828125 169.082031 C 135.738281 168.988281 135.632812 168.914062 135.511719 168.859375 Z M 135.511719 168.859375 " fill-opacity="1" fill-rule="nonzero"/><path fill="rgb(42.749023%, 43.139648%, 44.309998%)" d="M 137.453125 136.835938 C 136.875 136.914062 136.332031 137.09375 135.824219 137.375 C 135.316406 137.660156 134.875 138.023438 134.503906 138.476562 C 134.136719 138.925781 133.859375 139.429688 133.683594 139.984375 C 133.503906 140.539062 133.433594 141.109375 133.46875 141.691406 C 133.507812 142.273438 133.648438 142.828125 133.898438 143.355469 C 134.144531 143.882812 134.480469 144.347656 134.90625 144.746094 C 135.328125 145.148438 135.8125 145.457031 136.355469 145.671875 C 136.894531 145.886719 137.457031 145.996094 138.039062 145.996094 C 138.242188 146 138.441406 145.984375 138.640625 145.957031 C 139.058594 145.90625 139.460938 145.796875 139.847656 145.632812 C 139.96875 145.582031 140.078125 145.507812 140.171875 145.414062 C 140.261719 145.320312 140.335938 145.210938 140.382812 145.085938 C 140.433594 144.964844 140.457031 144.835938 140.457031 144.703125 C 140.457031 144.574219 140.429688 144.445312 140.378906 144.324219 C 140.324219 144.203125 140.253906 144.09375 140.160156 144 C 140.0625 143.910156 139.957031 143.835938 139.832031 143.789062 C 139.710938 143.738281 139.582031 143.714844 139.453125 143.714844 C 139.320312 143.71875 139.191406 143.742188 139.070312 143.796875 C 138.851562 143.886719 138.621094 143.949219 138.386719 143.980469 C 138.164062 144.007812 137.941406 144.007812 137.71875 143.980469 C 137.496094 143.949219 137.28125 143.894531 137.074219 143.808594 C 136.863281 143.722656 136.671875 143.613281 136.492188 143.480469 C 136.3125 143.34375 136.152344 143.1875 136.015625 143.011719 C 135.875 142.835938 135.761719 142.644531 135.671875 142.441406 C 135.582031 142.234375 135.519531 142.019531 135.484375 141.796875 C 135.449219 141.574219 135.445312 141.351562 135.46875 141.128906 C 135.492188 140.90625 135.542969 140.6875 135.621094 140.480469 C 135.699219 140.269531 135.804688 140.070312 135.933594 139.890625 C 136.0625 139.707031 136.214844 139.542969 136.386719 139.398438 C 136.558594 139.253906 136.746094 139.132812 136.949219 139.039062 C 137.152344 138.945312 137.367188 138.875 137.585938 138.835938 C 137.808594 138.796875 138.03125 138.785156 138.253906 138.800781 C 138.476562 138.820312 138.695312 138.863281 138.90625 138.9375 C 139.117188 139.011719 139.316406 139.113281 139.503906 139.238281 C 139.691406 139.363281 139.855469 139.511719 140.003906 139.679688 C 140.09375 139.777344 140.195312 139.855469 140.316406 139.914062 C 140.433594 139.972656 140.558594 140.007812 140.691406 140.015625 C 140.824219 140.023438 140.953125 140.003906 141.078125 139.960938 C 141.203125 139.917969 141.3125 139.851562 141.414062 139.765625 C 141.511719 139.679688 141.589844 139.574219 141.648438 139.457031 C 141.707031 139.335938 141.738281 139.210938 141.746094 139.078125 C 141.753906 138.945312 141.738281 138.816406 141.695312 138.691406 C 141.652344 138.566406 141.585938 138.453125 141.5 138.355469 C 140.992188 137.78125 140.382812 137.359375 139.664062 137.089844 C 138.949219 136.820312 138.210938 136.738281 137.453125 136.835938 Z M 137.453125 136.835938 " fill-opacity="1" fill-rule="nonzero"/><path fill="rgb(42.749023%, 43.139648%, 44.309998%)" d="M 153.71875 192.84375 C 153.445312 192.835938 153.207031 192.929688 153.007812 193.117188 C 152.808594 193.308594 152.703125 193.539062 152.695312 193.8125 C 152.691406 193.984375 152.660156 194.152344 152.609375 194.316406 C 152.5625 194.46875 152.496094 194.613281 152.414062 194.75 C 152.328125 194.886719 152.226562 195.011719 152.109375 195.121094 C 151.992188 195.230469 151.863281 195.324219 151.722656 195.402344 C 151.582031 195.480469 151.433594 195.539062 151.277344 195.578125 C 151.121094 195.613281 150.960938 195.632812 150.800781 195.628906 C 150.640625 195.628906 150.480469 195.605469 150.328125 195.5625 C 150.171875 195.519531 150.023438 195.453125 149.886719 195.375 C 149.746094 195.292969 149.621094 195.195312 149.507812 195.078125 C 149.394531 194.964844 149.296875 194.839844 149.21875 194.699219 C 149.136719 194.558594 149.074219 194.414062 149.03125 194.257812 C 148.988281 194.101562 148.96875 193.941406 148.964844 193.78125 C 148.964844 193.621094 148.984375 193.460938 149.023438 193.304688 C 149.0625 193.148438 149.121094 193 149.199219 192.859375 C 149.277344 192.71875 149.371094 192.589844 149.484375 192.472656 C 149.59375 192.359375 149.71875 192.257812 149.855469 192.171875 C 149.992188 192.089844 150.136719 192.023438 150.292969 191.976562 C 150.550781 191.894531 150.746094 191.734375 150.871094 191.492188 C 151 191.25 151.023438 191 150.945312 190.738281 C 150.867188 190.476562 150.707031 190.28125 150.46875 190.152344 C 150.230469 190.019531 149.980469 189.992188 149.71875 190.066406 C 149.324219 190.1875 148.957031 190.367188 148.621094 190.605469 C 148.28125 190.84375 147.988281 191.128906 147.742188 191.457031 C 147.496094 191.789062 147.308594 192.152344 147.175781 192.546875 C 147.046875 192.9375 146.980469 193.339844 146.980469 193.753906 C 146.980469 194.167969 147.042969 194.570312 147.171875 194.964844 C 147.296875 195.355469 147.484375 195.71875 147.730469 196.054688 C 147.972656 196.386719 148.265625 196.671875 148.601562 196.914062 C 148.9375 197.152344 149.304688 197.332031 149.699219 197.457031 C 150.070312 197.570312 150.449219 197.628906 150.839844 197.628906 C 151.480469 197.628906 152.082031 197.480469 152.648438 197.179688 C 153.59375 196.683594 154.222656 195.925781 154.53125 194.902344 C 154.636719 194.566406 154.695312 194.222656 154.703125 193.867188 C 154.707031 193.734375 154.683594 193.605469 154.636719 193.480469 C 154.589844 193.355469 154.519531 193.246094 154.425781 193.148438 C 154.332031 193.050781 154.226562 192.976562 154.101562 192.925781 C 153.980469 192.871094 153.851562 192.84375 153.71875 192.84375 Z M 153.71875 192.84375 " fill-opacity="1" fill-rule="nonzero"/><path fill="rgb(42.749023%, 43.139648%, 44.309998%)" d="M 186.785156 206.304688 C 186.6875 205.652344 186.882812 205.101562 187.371094 204.652344 C 187.554688 204.464844 187.652344 204.238281 187.65625 203.96875 C 187.660156 203.703125 187.574219 203.472656 187.394531 203.277344 C 187.214844 203.082031 186.996094 202.972656 186.730469 202.953125 C 186.464844 202.9375 186.230469 203.011719 186.023438 203.179688 C 185.738281 203.441406 185.496094 203.742188 185.300781 204.078125 C 185.105469 204.414062 184.964844 204.769531 184.875 205.148438 C 184.789062 205.527344 184.757812 205.910156 184.785156 206.296875 C 184.8125 206.683594 184.894531 207.058594 185.035156 207.421875 C 185.175781 207.785156 185.363281 208.117188 185.605469 208.425781 C 185.847656 208.730469 186.125 208.992188 186.445312 209.210938 C 186.765625 209.433594 187.109375 209.601562 187.480469 209.71875 C 187.851562 209.832031 188.230469 209.890625 188.617188 209.894531 C 188.8125 209.894531 189.003906 209.878906 189.195312 209.851562 C 189.703125 209.777344 190.175781 209.605469 190.613281 209.34375 C 191.050781 209.078125 191.421875 208.742188 191.726562 208.328125 C 192.03125 207.917969 192.246094 207.460938 192.371094 206.964844 C 192.492188 206.46875 192.519531 205.964844 192.441406 205.460938 C 192.386719 205.109375 192.285156 204.773438 192.140625 204.453125 C 192.09375 204.320312 192.023438 204.203125 191.925781 204.101562 C 191.832031 204.003906 191.71875 203.925781 191.59375 203.871094 C 191.464844 203.816406 191.332031 203.789062 191.191406 203.789062 C 191.054688 203.792969 190.921875 203.820312 190.796875 203.878906 C 190.667969 203.933594 190.558594 204.015625 190.464844 204.117188 C 190.371094 204.222656 190.304688 204.339844 190.261719 204.472656 C 190.214844 204.601562 190.199219 204.738281 190.210938 204.875 C 190.226562 205.015625 190.265625 205.144531 190.332031 205.265625 C 190.398438 205.421875 190.445312 205.585938 190.472656 205.753906 C 190.507812 205.996094 190.496094 206.238281 190.433594 206.480469 C 190.375 206.71875 190.269531 206.9375 190.121094 207.132812 C 189.976562 207.332031 189.796875 207.496094 189.585938 207.621094 C 189.371094 207.75 189.144531 207.832031 188.902344 207.867188 " fill-opacity="1" fill-rule="nonzero"/><path fill="rgb(42.749023%, 43.139648%, 44.309998%)" d="M 225.84375 182.738281 C 225.617188 182.597656 225.371094 182.558594 225.113281 182.617188 C 224.851562 182.671875 224.648438 182.8125 224.5 183.03125 C 224.351562 183.253906 224.296875 183.496094 224.339844 183.757812 C 224.386719 184.023438 224.515625 184.234375 224.726562 184.394531 C 224.871094 184.488281 224.996094 184.601562 225.109375 184.730469 C 225.210938 184.855469 225.300781 184.988281 225.367188 185.132812 C 225.4375 185.277344 225.488281 185.429688 225.519531 185.589844 C 225.546875 185.746094 225.558594 185.90625 225.546875 186.066406 C 225.535156 186.226562 225.503906 186.382812 225.453125 186.535156 C 225.402344 186.6875 225.332031 186.832031 225.246094 186.96875 C 225.15625 187.101562 225.050781 187.222656 224.933594 187.328125 C 224.8125 187.4375 224.679688 187.527344 224.539062 187.601562 C 224.394531 187.675781 224.246094 187.730469 224.085938 187.761719 C 223.929688 187.796875 223.773438 187.8125 223.609375 187.804688 C 223.449219 187.796875 223.292969 187.773438 223.140625 187.722656 C 222.984375 187.675781 222.839844 187.609375 222.703125 187.527344 C 222.566406 187.441406 222.445312 187.339844 222.332031 187.222656 C 222.222656 187.105469 222.128906 186.976562 222.050781 186.835938 C 221.976562 186.691406 221.917969 186.542969 221.878906 186.386719 C 221.839844 186.230469 221.820312 186.074219 221.824219 185.910156 C 221.828125 185.75 221.851562 185.59375 221.894531 185.4375 C 221.953125 185.175781 221.917969 184.929688 221.78125 184.699219 C 221.644531 184.46875 221.449219 184.320312 221.191406 184.246094 C 220.933594 184.175781 220.6875 184.203125 220.449219 184.328125 C 220.214844 184.453125 220.054688 184.644531 219.972656 184.898438 C 219.894531 185.175781 219.847656 185.453125 219.835938 185.738281 C 219.820312 186.023438 219.835938 186.304688 219.882812 186.585938 C 219.929688 186.867188 220.007812 187.140625 220.117188 187.402344 C 220.222656 187.667969 220.359375 187.917969 220.523438 188.148438 C 220.683594 188.382812 220.871094 188.597656 221.082031 188.789062 C 221.289062 188.980469 221.519531 189.148438 221.765625 189.289062 C 222.011719 189.433594 222.273438 189.546875 222.542969 189.628906 C 222.816406 189.714844 223.09375 189.765625 223.375 189.789062 C 223.484375 189.789062 223.589844 189.789062 223.695312 189.789062 C 224.441406 189.785156 225.132812 189.582031 225.761719 189.175781 C 226.390625 188.769531 226.863281 188.226562 227.175781 187.546875 C 227.488281 186.867188 227.59375 186.15625 227.496094 185.410156 C 227.394531 184.667969 227.101562 184.011719 226.617188 183.4375 C 226.390625 183.171875 226.132812 182.9375 225.84375 182.738281 Z M 225.84375 182.738281 " fill-opacity="1" fill-rule="nonzero"/><g fill="rgb(100%, 100%, 100%)" fill-opacity="1"><g transform="translate(64.196111, 253.414042)"><g><path d="M 15.019531 -5.773438 C 10.507812 -5.773438 8.546875 -9.65625 8.546875 -13.6875 C 8.546875 -17.5 10.46875 -21.125 14.6875 -21.125 C 16.6875 -21.125 18.535156 -20.273438 20.535156 -20.273438 C 21.273438 -20.273438 21.382812 -20.71875 21.382812 -21.347656 C 21.382812 -22.496094 21.421875 -24.308594 20.609375 -25.195312 C 19.683594 -26.230469 16.464844 -26.75 15.09375 -26.824219 C 14.464844 -26.859375 13.835938 -26.859375 13.207031 -26.859375 C 5.808594 -26.859375 0.8125 -20.609375 0.8125 -13.503906 C 0.8125 -6.140625 5.957031 -0.109375 13.542969 -0.109375 C 15.242188 -0.109375 19.683594 -0.480469 20.902344 -1.703125 C 21.644531 -2.441406 21.71875 -4.476562 21.71875 -5.476562 C 21.71875 -6.402344 21.238281 -6.621094 20.386719 -6.621094 C 18.535156 -6.621094 16.832031 -5.773438 15.019531 -5.773438 Z M 15.019531 -5.773438 "/></g></g></g><g fill="rgb(100%, 100%, 100%)" fill-opacity="1"><g transform="translate(86.245527, 253.414042)"><g><path d="M 13.613281 -26.898438 C 6.253906 -26.898438 0.777344 -20.71875 0.777344 -13.503906 C 0.777344 -5.808594 6.660156 -0.0742188 14.316406 -0.0742188 C 21.605469 -0.0742188 27.304688 -6.363281 27.304688 -13.503906 C 27.304688 -21.3125 21.3125 -26.898438 13.613281 -26.898438 Z M 14.355469 -5.992188 C 10.324219 -5.992188 8.472656 -8.992188 8.472656 -12.726562 C 8.472656 -16.5 9.359375 -20.976562 14.023438 -20.976562 C 18.792969 -20.976562 19.570312 -16.539062 19.570312 -12.726562 C 19.570312 -9.621094 17.90625 -5.992188 14.355469 -5.992188 Z M 14.355469 -5.992188 "/></g></g></g><g fill="rgb(100%, 100%, 100%)" fill-opacity="1"><g transform="translate(111.994554, 253.414042)"><g><path d="M 2.480469 -11.433594 C 2.480469 -9.25 2.554688 -1.886719 4.882812 -0.960938 C 5.808594 -0.59375 6.84375 -0.554688 7.804688 -0.554688 C 9.953125 -0.554688 10.175781 -1.960938 10.175781 -3.738281 C 10.175781 -4.699219 10.101562 -5.660156 10.101562 -6.621094 C 10.101562 -9.285156 11.023438 -10.507812 13.761719 -10.507812 C 14.539062 -10.507812 15.355469 -10.433594 16.132812 -10.433594 C 17.683594 -10.433594 19.535156 -10.691406 19.535156 -12.652344 C 19.535156 -13.542969 19.496094 -14.871094 18.683594 -15.390625 C 18.351562 -15.613281 17.945312 -15.722656 17.535156 -15.761719 C 16.203125 -15.871094 14.761719 -15.796875 13.429688 -15.796875 C 11.617188 -15.796875 10.0625 -15.613281 10.0625 -17.945312 C 10.0625 -19.90625 10.46875 -20.753906 12.578125 -20.753906 L 14.429688 -20.753906 C 15.316406 -20.753906 16.203125 -20.609375 17.09375 -20.609375 C 18.128906 -20.609375 20.015625 -20.71875 20.015625 -22.125 C 20.015625 -23.269531 19.941406 -24.601562 19.089844 -25.453125 C 18.128906 -26.378906 12.839844 -26.527344 11.394531 -26.527344 C 2.40625 -26.527344 2.480469 -22.347656 2.480469 -14.761719 Z M 2.480469 -11.433594 "/></g></g></g><g fill="rgb(100%, 100%, 100%)" fill-opacity="1"><g transform="translate(132.009188, 253.414042)"><g><path d="M 2.480469 -11.433594 C 2.480469 -9.25 2.554688 -1.886719 4.882812 -0.960938 C 5.808594 -0.59375 6.84375 -0.554688 7.804688 -0.554688 C 9.953125 -0.554688 10.175781 -1.960938 10.175781 -3.738281 C 10.175781 -4.699219 10.101562 -5.660156 10.101562 -6.621094 C 10.101562 -9.285156 11.023438 -10.507812 13.761719 -10.507812 C 14.539062 -10.507812 15.355469 -10.433594 16.132812 -10.433594 C 17.683594 -10.433594 19.535156 -10.691406 19.535156 -12.652344 C 19.535156 -13.542969 19.496094 -14.871094 18.683594 -15.390625 C 18.351562 -15.613281 17.945312 -15.722656 17.535156 -15.761719 C 16.203125 -15.871094 14.761719 -15.796875 13.429688 -15.796875 C 11.617188 -15.796875 10.0625 -15.613281 10.0625 -17.945312 C 10.0625 -19.90625 10.46875 -20.753906 12.578125 -20.753906 L 14.429688 -20.753906 C 15.316406 -20.753906 16.203125 -20.609375 17.09375 -20.609375 C 18.128906 -20.609375 20.015625 -20.71875 20.015625 -22.125 C 20.015625 -23.269531 19.941406 -24.601562 19.089844 -25.453125 C 18.128906 -26.378906 12.839844 -26.527344 11.394531 -26.527344 C 2.40625 -26.527344 2.480469 -22.347656 2.480469 -14.761719 Z M 2.480469 -11.433594 "/></g></g></g><g fill="rgb(100%, 100%, 100%)" fill-opacity="1"><g transform="translate(152.023822, 253.414042)"><g><path d="M 10.0625 -8.175781 C 10.0625 -8.695312 10.0625 -9.25 10.175781 -9.765625 C 10.25 -10.101562 10.359375 -10.433594 10.617188 -10.65625 C 11.320312 -11.246094 13.132812 -11.136719 14.058594 -11.136719 C 15.242188 -11.136719 18.941406 -10.914062 19.644531 -11.949219 C 19.90625 -12.355469 19.980469 -12.949219 19.980469 -13.429688 C 19.980469 -14.023438 19.980469 -15.09375 19.609375 -15.574219 C 19.015625 -16.351562 17.90625 -16.5 16.980469 -16.5 C 15.871094 -16.5 14.761719 -16.390625 13.652344 -16.390625 C 12.320312 -16.390625 10.101562 -16.5 10.101562 -18.3125 C 10.101562 -20.792969 11.097656 -20.753906 13.207031 -20.753906 C 14.429688 -20.753906 15.648438 -20.570312 16.871094 -20.570312 C 17.980469 -20.570312 20.386719 -20.535156 20.386719 -22.125 C 20.386719 -23.085938 20.238281 -24.195312 19.535156 -24.9375 C 18.351562 -26.195312 16.316406 -26.5625 14.652344 -26.5625 C 6.695312 -26.5625 2.480469 -26.488281 2.480469 -17.167969 C 2.480469 -15.6875 2.515625 -14.242188 2.515625 -12.765625 C 2.515625 -10.953125 2.554688 -9.136719 2.664062 -7.324219 C 2.847656 -4.550781 3.589844 -2.332031 6.328125 -1.222656 C 8.769531 -0.222656 11.839844 -0.445312 14.464844 -0.445312 C 16.871094 -0.445312 20.347656 -1 20.347656 -4.070312 C 20.347656 -5.808594 20.050781 -6.328125 18.238281 -6.328125 C 16.203125 -6.328125 14.132812 -6.214844 12.097656 -6.214844 C 10.765625 -6.214844 10.0625 -6.84375 10.0625 -8.175781 Z M 10.0625 -8.175781 "/></g></g></g><g fill="rgb(100%, 100%, 100%)" fill-opacity="1"><g transform="translate(172.593397, 253.414042)"><g><path d="M 10.0625 -8.175781 C 10.0625 -8.695312 10.0625 -9.25 10.175781 -9.765625 C 10.25 -10.101562 10.359375 -10.433594 10.617188 -10.65625 C 11.320312 -11.246094 13.132812 -11.136719 14.058594 -11.136719 C 15.242188 -11.136719 18.941406 -10.914062 19.644531 -11.949219 C 19.90625 -12.355469 19.980469 -12.949219 19.980469 -13.429688 C 19.980469 -14.023438 19.980469 -15.09375 19.609375 -15.574219 C 19.015625 -16.351562 17.90625 -16.5 16.980469 -16.5 C 15.871094 -16.5 14.761719 -16.390625 13.652344 -16.390625 C 12.320312 -16.390625 10.101562 -16.5 10.101562 -18.3125 C 10.101562 -20.792969 11.097656 -20.753906 13.207031 -20.753906 C 14.429688 -20.753906 15.648438 -20.570312 16.871094 -20.570312 C 17.980469 -20.570312 20.386719 -20.535156 20.386719 -22.125 C 20.386719 -23.085938 20.238281 -24.195312 19.535156 -24.9375 C 18.351562 -26.195312 16.316406 -26.5625 14.652344 -26.5625 C 6.695312 -26.5625 2.480469 -26.488281 2.480469 -17.167969 C 2.480469 -15.6875 2.515625 -14.242188 2.515625 -12.765625 C 2.515625 -10.953125 2.554688 -9.136719 2.664062 -7.324219 C 2.847656 -4.550781 3.589844 -2.332031 6.328125 -1.222656 C 8.769531 -0.222656 11.839844 -0.445312 14.464844 -0.445312 C 16.871094 -0.445312 20.347656 -1 20.347656 -4.070312 C 20.347656 -5.808594 20.050781 -6.328125 18.238281 -6.328125 C 16.203125 -6.328125 14.132812 -6.214844 12.097656 -6.214844 C 10.765625 -6.214844 10.0625 -6.84375 10.0625 -8.175781 Z M 10.0625 -8.175781 "/></g></g></g><g fill="rgb(100%, 100%, 100%)" fill-opacity="1"><g transform="translate(193.162983, 253.414042)"><g><path d="M 8.027344 -26.34375 C 6.808594 -26.34375 5.476562 -26.34375 4.476562 -25.601562 C 4.105469 -25.34375 3.847656 -24.972656 3.625 -24.601562 C 2.480469 -22.496094 2.480469 -15.242188 2.480469 -12.617188 C 2.480469 -10.324219 2.441406 -1.996094 4.957031 -1 C 5.773438 -0.664062 7.03125 -0.628906 7.917969 -0.628906 C 10.027344 -0.628906 10.136719 -2.070312 10.136719 -3.773438 C 10.136719 -5.105469 9.914062 -6.402344 9.914062 -7.660156 C 9.914062 -10.136719 10.804688 -11.171875 13.28125 -11.171875 C 15.132812 -11.171875 16.796875 -11.0625 16.796875 -8.769531 C 16.796875 -7.4375 16.613281 -6.105469 16.613281 -4.773438 C 16.613281 -3.328125 16.722656 -0.628906 18.683594 -0.628906 C 19.867188 -0.628906 21.421875 -0.664062 22.421875 -1.40625 C 22.789062 -1.664062 23.050781 -1.996094 23.269531 -2.367188 C 24.308594 -4.292969 24.457031 -10.101562 24.457031 -12.394531 C 24.457031 -15.316406 24.601562 -23.53125 22.570312 -25.566406 C 21.941406 -26.230469 19.71875 -26.34375 18.832031 -26.34375 C 17.09375 -26.34375 16.722656 -25.230469 16.722656 -23.679688 C 16.722656 -22.308594 17.019531 -20.976562 17.019531 -19.609375 C 17.019531 -17.167969 15.648438 -16.539062 13.46875 -16.539062 C 10.175781 -16.539062 10.0625 -17.535156 10.0625 -20.496094 C 10.0625 -21.421875 10.210938 -22.347656 10.210938 -23.269531 C 10.210938 -24.863281 9.914062 -26.34375 8.027344 -26.34375 Z M 8.027344 -26.34375 "/></g></g></g><g fill="rgb(100%, 100%, 100%)" fill-opacity="1"><g transform="translate(217.802134, 253.414042)"><g><path d="M 13.613281 -26.898438 C 6.253906 -26.898438 0.777344 -20.71875 0.777344 -13.503906 C 0.777344 -5.808594 6.660156 -0.0742188 14.316406 -0.0742188 C 21.605469 -0.0742188 27.304688 -6.363281 27.304688 -13.503906 C 27.304688 -21.3125 21.3125 -26.898438 13.613281 -26.898438 Z M 14.355469 -5.992188 C 10.324219 -5.992188 8.472656 -8.992188 8.472656 -12.726562 C 8.472656 -16.5 9.359375 -20.976562 14.023438 -20.976562 C 18.792969 -20.976562 19.570312 -16.539062 19.570312 -12.726562 C 19.570312 -9.621094 17.90625 -5.992188 14.355469 -5.992188 Z M 14.355469 -5.992188 "/></g></g></g><g fill="rgb(100%, 100%, 100%)" fill-opacity="1"><g transform="translate(243.551156, 253.414042)"><g><path d="M 7.214844 -26.378906 C 5.992188 -26.378906 4.179688 -26.195312 3.367188 -25.121094 C 2.144531 -23.492188 2.070312 -16.539062 2.070312 -14.316406 C 2.070312 -12.949219 2.109375 -11.617188 2.109375 -10.25 C 2.183594 -4.03125 7.03125 -0.0351562 13.058594 -0.0351562 C 17.316406 -0.0351562 21.347656 -2.144531 23.199219 -6.066406 C 23.828125 -7.398438 24.085938 -8.84375 24.085938 -10.285156 C 24.085938 -12.210938 24.121094 -14.132812 24.121094 -16.058594 C 24.121094 -17.980469 24.046875 -24.195312 22.496094 -25.453125 C 21.457031 -26.304688 20.164062 -26.304688 18.867188 -26.304688 C 16.167969 -26.304688 16.5 -23.753906 16.5 -21.828125 C 16.5 -17.796875 16.613281 -13.800781 16.613281 -9.765625 C 16.613281 -7.175781 15.722656 -5.773438 12.984375 -5.773438 C 10.136719 -5.773438 9.730469 -7.917969 9.730469 -10.285156 C 9.730469 -13.058594 9.988281 -15.796875 9.988281 -18.574219 C 9.988281 -20.609375 9.953125 -22.679688 9.582031 -24.675781 C 9.472656 -25.230469 9.285156 -25.75 8.804688 -26.046875 C 8.363281 -26.304688 7.734375 -26.378906 7.214844 -26.378906 Z M 7.214844 -26.378906 "/></g></g></g><g fill="rgb(100%, 100%, 100%)" fill-opacity="1"><g transform="translate(267.450377, 253.414042)"><g><path d="M 11.988281 -21.347656 C 13.355469 -21.347656 14.726562 -21.050781 16.058594 -20.753906 C 17.09375 -20.496094 18.238281 -20.164062 19.3125 -20.164062 C 19.941406 -20.164062 20.273438 -20.460938 20.273438 -21.089844 C 20.273438 -26.824219 16.203125 -26.898438 11.691406 -26.898438 C 6.84375 -26.898438 1.664062 -24.234375 1.664062 -18.792969 C 1.664062 -14.652344 5.84375 -11.765625 9.472656 -10.730469 C 10.542969 -10.433594 11.691406 -10.25 12.617188 -9.582031 C 13.246094 -9.136719 13.46875 -8.582031 13.46875 -7.804688 C 13.46875 -6.140625 11.765625 -5.660156 10.394531 -5.660156 C 8.992188 -5.660156 7.621094 -6.066406 6.289062 -6.472656 C 5.214844 -6.808594 4.070312 -7.289062 2.921875 -7.289062 C 2.515625 -7.289062 2.480469 -6.957031 2.480469 -6.621094 C 2.480469 -0.703125 6.546875 -0.0351562 11.46875 -0.0351562 C 16.464844 -0.0351562 21.164062 -3.402344 21.164062 -8.695312 C 21.164062 -16.871094 9.285156 -15.539062 9.285156 -19.3125 C 9.285156 -20.867188 10.65625 -21.347656 11.988281 -21.347656 Z M 11.988281 -21.347656 "/></g></g></g><g fill="rgb(100%, 100%, 100%)" fill-opacity="1"><g transform="translate(288.019964, 253.414042)"><g><path d="M 10.0625 -8.175781 C 10.0625 -8.695312 10.0625 -9.25 10.175781 -9.765625 C 10.25 -10.101562 10.359375 -10.433594 10.617188 -10.65625 C 11.320312 -11.246094 13.132812 -11.136719 14.058594 -11.136719 C 15.242188 -11.136719 18.941406 -10.914062 19.644531 -11.949219 C 19.90625 -12.355469 19.980469 -12.949219 19.980469 -13.429688 C 19.980469 -14.023438 19.980469 -15.09375 19.609375 -15.574219 C 19.015625 -16.351562 17.90625 -16.5 16.980469 -16.5 C 15.871094 -16.5 14.761719 -16.390625 13.652344 -16.390625 C 12.320312 -16.390625 10.101562 -16.5 10.101562 -18.3125 C 10.101562 -20.792969 11.097656 -20.753906 13.207031 -20.753906 C 14.429688 -20.753906 15.648438 -20.570312 16.871094 -20.570312 C 17.980469 -20.570312 20.386719 -20.535156 20.386719 -22.125 C 20.386719 -23.085938 20.238281 -24.195312 19.535156 -24.9375 C 18.351562 -26.195312 16.316406 -26.5625 14.652344 -26.5625 C 6.695312 -26.5625 2.480469 -26.488281 2.480469 -17.167969 C 2.480469 -15.6875 2.515625 -14.242188 2.515625 -12.765625 C 2.515625 -10.953125 2.554688 -9.136719 2.664062 -7.324219 C 2.847656 -4.550781 3.589844 -2.332031 6.328125 -1.222656 C 8.769531 -0.222656 11.839844 -0.445312 14.464844 -0.445312 C 16.871094 -0.445312 20.347656 -1 20.347656 -4.070312 C 20.347656 -5.808594 20.050781 -6.328125 18.238281 -6.328125 C 16.203125 -6.328125 14.132812 -6.214844 12.097656 -6.214844 C 10.765625 -6.214844 10.0625 -6.84375 10.0625 -8.175781 Z M 10.0625 -8.175781 "/></g></g></g></svg>