<svg xmlns="http://www.w3.org/2000/svg" xmlns:xlink="http://www.w3.org/1999/xlink" width="512" zoomAndPan="magnify" viewBox="0 0 384 383.999986" height="512" preserveAspectRatio="xMidYMid meet" version="1.0"><defs><g/><clipPath id="id1"><path d="M 132 52.289062 L 244 52.289062 L 244 68 L 132 68 Z M 132 52.289062 " clip-rule="nonzero"/></clipPath><clipPath id="id2"><path d="M 178 52.289062 L 202 52.289062 L 202 67 L 178 67 Z M 178 52.289062 " clip-rule="nonzero"/></clipPath></defs><path fill="rgb(28.62854%, 20.388794%, 13.729858%)" d="M 243.5625 330.160156 L 140.230469 330.160156 L 140.230469 313.863281 L 243.5625 313.863281 L 243.5625 330.160156 " fill-opacity="1" fill-rule="nonzero"/><path fill="rgb(0%, 0%, 0%)" d="M 243.5625 330.160156 L 243.5625 328.355469 L 142.027344 328.355469 L 142.027344 315.667969 L 241.761719 315.667969 L 241.761719 330.160156 L 243.5625 330.160156 L 243.5625 328.355469 L 243.5625 330.160156 L 245.363281 330.160156 L 245.363281 313.863281 C 245.363281 313.386719 245.171875 312.921875 244.832031 312.589844 C 244.5 312.25 244.035156 312.058594 243.5625 312.058594 L 140.230469 312.058594 C 139.753906 312.058594 139.296875 312.25 138.957031 312.589844 C 138.625 312.921875 138.433594 313.386719 138.433594 313.863281 L 138.433594 330.160156 C 138.433594 330.636719 138.625 331.101562 138.957031 331.433594 C 139.296875 331.769531 139.753906 331.964844 140.230469 331.964844 L 243.5625 331.964844 C 244.035156 331.964844 244.5 331.769531 244.832031 331.433594 C 245.171875 331.101562 245.363281 330.636719 245.363281 330.160156 L 243.5625 330.160156 " fill-opacity="1" fill-rule="nonzero"/><path fill="rgb(28.62854%, 20.388794%, 13.729858%)" d="M 248.21875 320.820312 L 135.574219 320.820312 L 109.582031 92.25 L 274.214844 92.25 L 248.21875 320.820312 " fill-opacity="1" fill-rule="nonzero"/><path fill="rgb(0%, 0%, 0%)" d="M 248.21875 320.820312 L 248.21875 319.015625 L 137.183594 319.015625 L 111.597656 94.046875 L 272.199219 94.046875 L 246.429688 320.613281 L 248.21875 320.820312 L 248.21875 319.015625 L 248.21875 320.820312 L 250.003906 321.023438 L 276 92.449219 C 276.058594 91.941406 275.898438 91.429688 275.554688 91.046875 C 275.214844 90.660156 274.730469 90.441406 274.214844 90.441406 L 109.582031 90.441406 C 109.066406 90.441406 108.582031 90.660156 108.242188 91.046875 C 107.898438 91.429688 107.734375 91.941406 107.792969 92.449219 L 133.792969 321.023438 C 133.890625 321.933594 134.667969 322.625 135.574219 322.625 L 248.21875 322.625 C 249.128906 322.625 249.902344 321.933594 250.003906 321.023438 L 248.21875 320.820312 " fill-opacity="1" fill-rule="nonzero"/><path fill="rgb(67.059326%, 52.938843%, 37.249756%)" d="M 263.855469 244.4375 L 274.316406 161.347656 L 109.480469 161.347656 L 119.941406 244.4375 L 263.855469 244.4375 " fill-opacity="1" fill-rule="nonzero"/><path fill="rgb(0%, 0%, 0%)" d="M 263.855469 244.4375 L 265.640625 244.664062 L 276.101562 161.578125 C 276.164062 161.066406 276.003906 160.539062 275.667969 160.15625 C 275.324219 159.773438 274.828125 159.542969 274.316406 159.542969 L 109.480469 159.542969 C 108.964844 159.542969 108.472656 159.773438 108.128906 160.15625 C 107.792969 160.539062 107.628906 161.066406 107.695312 161.578125 L 118.15625 244.664062 C 118.269531 245.566406 119.035156 246.242188 119.941406 246.242188 L 263.855469 246.242188 C 264.761719 246.242188 265.527344 245.566406 265.640625 244.664062 L 263.855469 244.4375 L 263.855469 242.632812 L 121.523438 242.632812 L 111.523438 163.15625 L 272.273438 163.15625 L 262.070312 244.210938 L 263.855469 244.4375 L 263.855469 242.632812 L 263.855469 244.4375 " fill-opacity="1" fill-rule="nonzero"/><path fill="rgb(100%, 100%, 100%)" d="M 278.878906 108.90625 L 104.921875 108.90625 L 104.921875 87.089844 L 278.878906 87.089844 L 278.878906 108.90625 " fill-opacity="1" fill-rule="nonzero"/><path fill="rgb(0%, 0%, 0%)" d="M 278.878906 108.90625 L 278.878906 107.101562 L 106.71875 107.101562 L 106.71875 88.894531 L 277.078125 88.894531 L 277.078125 108.90625 L 278.878906 108.90625 L 278.878906 107.101562 L 278.878906 108.90625 L 280.679688 108.90625 L 280.679688 87.089844 C 280.679688 86.613281 280.480469 86.15625 280.148438 85.816406 C 279.816406 85.484375 279.351562 85.289062 278.878906 85.289062 L 104.921875 85.289062 C 104.449219 85.289062 103.984375 85.484375 103.648438 85.816406 C 103.316406 86.15625 103.125 86.613281 103.125 87.089844 L 103.125 108.90625 C 103.125 109.375 103.316406 109.839844 103.648438 110.179688 C 103.984375 110.511719 104.449219 110.707031 104.921875 110.707031 L 278.878906 110.707031 C 279.351562 110.707031 279.816406 110.511719 280.148438 110.179688 C 280.480469 109.839844 280.679688 109.375 280.679688 108.90625 L 278.878906 108.90625 " fill-opacity="1" fill-rule="nonzero"/><path fill="rgb(100%, 100%, 100%)" d="M 278.878906 87.089844 L 104.921875 87.089844 C 104.921875 87.089844 114.644531 65.285156 133.972656 65.285156 C 153.296875 65.285156 222.71875 65.285156 242.199219 65.285156 C 261.675781 65.285156 278.878906 87.089844 278.878906 87.089844 " fill-opacity="1" fill-rule="nonzero"/><path fill="rgb(0%, 0%, 0%)" d="M 278.878906 87.089844 L 278.878906 85.289062 L 104.921875 85.289062 L 104.921875 87.089844 L 106.5625 87.828125 L 106.566406 87.824219 C 106.667969 87.597656 109.109375 82.285156 113.761719 77.144531 C 116.085938 74.570312 118.949219 72.042969 122.320312 70.175781 C 125.695312 68.304688 129.550781 67.089844 133.972656 67.085938 C 153.296875 67.085938 222.71875 67.085938 242.199219 67.085938 C 246.726562 67.085938 251.203125 68.359375 255.382812 70.320312 C 261.652344 73.265625 267.210938 77.75 271.167969 81.503906 C 273.152344 83.378906 274.734375 85.066406 275.816406 86.28125 C 276.363281 86.886719 276.777344 87.378906 277.054688 87.710938 C 277.195312 87.878906 277.300781 88.003906 277.367188 88.089844 L 277.445312 88.1875 L 277.464844 88.214844 L 278.878906 87.089844 L 278.878906 85.289062 L 278.878906 87.089844 L 280.289062 85.972656 C 280.234375 85.90625 275.867188 80.371094 268.972656 74.78125 C 265.523438 71.992188 261.433594 69.183594 256.910156 67.054688 C 252.382812 64.933594 247.402344 63.480469 242.199219 63.480469 C 222.71875 63.480469 153.296875 63.480469 133.972656 63.480469 C 128.800781 63.476562 124.246094 64.945312 120.394531 67.117188 C 114.617188 70.378906 110.378906 75.175781 107.550781 79.144531 C 104.726562 83.117188 103.316406 86.28125 103.28125 86.355469 C 103.03125 86.914062 103.082031 87.566406 103.410156 88.078125 C 103.742188 88.585938 104.3125 88.894531 104.921875 88.894531 L 278.878906 88.894531 C 279.5625 88.894531 280.195312 88.5 280.496094 87.878906 C 280.792969 87.257812 280.714844 86.515625 280.289062 85.972656 L 278.878906 87.089844 " fill-opacity="1" fill-rule="nonzero"/><path fill="rgb(0%, 0%, 0%)" d="M 113.535156 87.089844 L 113.535156 100.082031 C 113.535156 101.074219 114.339844 101.882812 115.332031 101.882812 C 116.328125 101.882812 117.132812 101.074219 117.132812 100.082031 L 117.132812 87.089844 C 117.132812 86.09375 116.328125 85.289062 115.332031 85.289062 C 114.339844 85.289062 113.535156 86.09375 113.535156 87.089844 " fill-opacity="1" fill-rule="nonzero"/><path fill="rgb(0%, 0%, 0%)" d="M 127.628906 87.089844 L 127.628906 100.082031 C 127.628906 101.074219 128.4375 101.882812 129.429688 101.882812 C 130.421875 101.882812 131.230469 101.074219 131.230469 100.082031 L 131.230469 87.089844 C 131.230469 86.09375 130.421875 85.289062 129.429688 85.289062 C 128.4375 85.289062 127.628906 86.09375 127.628906 87.089844 " fill-opacity="1" fill-rule="nonzero"/><path fill="rgb(0%, 0%, 0%)" d="M 141.726562 87.089844 L 141.726562 100.082031 C 141.726562 101.074219 142.535156 101.882812 143.527344 101.882812 C 144.519531 101.882812 145.328125 101.074219 145.328125 100.082031 L 145.328125 87.089844 C 145.328125 86.09375 144.519531 85.289062 143.527344 85.289062 C 142.535156 85.289062 141.726562 86.09375 141.726562 87.089844 " fill-opacity="1" fill-rule="nonzero"/><path fill="rgb(0%, 0%, 0%)" d="M 155.824219 87.089844 L 155.824219 100.082031 C 155.824219 101.074219 156.625 101.882812 157.617188 101.882812 C 158.609375 101.882812 159.417969 101.074219 159.417969 100.082031 L 159.417969 87.089844 C 159.417969 86.09375 158.609375 85.289062 157.617188 85.289062 C 156.625 85.289062 155.824219 86.09375 155.824219 87.089844 " fill-opacity="1" fill-rule="nonzero"/><path fill="rgb(0%, 0%, 0%)" d="M 169.917969 87.089844 L 169.917969 100.082031 C 169.917969 101.074219 170.722656 101.882812 171.71875 101.882812 C 172.710938 101.882812 173.515625 101.074219 173.515625 100.082031 L 173.515625 87.089844 C 173.515625 86.09375 172.710938 85.289062 171.71875 85.289062 C 170.722656 85.289062 169.917969 86.09375 169.917969 87.089844 " fill-opacity="1" fill-rule="nonzero"/><path fill="rgb(0%, 0%, 0%)" d="M 184.015625 87.089844 L 184.015625 100.082031 C 184.015625 101.074219 184.820312 101.882812 185.816406 101.882812 C 186.808594 101.882812 187.617188 101.074219 187.617188 100.082031 L 187.617188 87.089844 C 187.617188 86.09375 186.808594 85.289062 185.816406 85.289062 C 184.820312 85.289062 184.015625 86.09375 184.015625 87.089844 " fill-opacity="1" fill-rule="nonzero"/><path fill="rgb(0%, 0%, 0%)" d="M 198.105469 87.089844 L 198.105469 100.082031 C 198.105469 101.074219 198.914062 101.882812 199.90625 101.882812 C 200.898438 101.882812 201.707031 101.074219 201.707031 100.082031 L 201.707031 87.089844 C 201.707031 86.09375 200.898438 85.289062 199.90625 85.289062 C 198.914062 85.289062 198.105469 86.09375 198.105469 87.089844 " fill-opacity="1" fill-rule="nonzero"/><path fill="rgb(0%, 0%, 0%)" d="M 212.207031 87.089844 L 212.207031 100.082031 C 212.207031 101.074219 213.015625 101.882812 214.007812 101.882812 C 214.996094 101.882812 215.804688 101.074219 215.804688 100.082031 L 215.804688 87.089844 C 215.804688 86.09375 214.996094 85.289062 214.007812 85.289062 C 213.015625 85.289062 212.207031 86.09375 212.207031 87.089844 " fill-opacity="1" fill-rule="nonzero"/><path fill="rgb(0%, 0%, 0%)" d="M 226.300781 87.089844 L 226.300781 100.082031 C 226.300781 101.074219 227.105469 101.882812 228.097656 101.882812 C 229.09375 101.882812 229.898438 101.074219 229.898438 100.082031 L 229.898438 87.089844 C 229.898438 86.09375 229.09375 85.289062 228.097656 85.289062 C 227.105469 85.289062 226.300781 86.09375 226.300781 87.089844 " fill-opacity="1" fill-rule="nonzero"/><path fill="rgb(0%, 0%, 0%)" d="M 240.402344 87.089844 L 240.402344 100.082031 C 240.402344 101.074219 241.207031 101.882812 242.199219 101.882812 C 243.195312 101.882812 244 101.074219 244 100.082031 L 244 87.089844 C 244 86.09375 243.195312 85.289062 242.199219 85.289062 C 241.207031 85.289062 240.402344 86.09375 240.402344 87.089844 " fill-opacity="1" fill-rule="nonzero"/><path fill="rgb(0%, 0%, 0%)" d="M 254.496094 87.089844 L 254.496094 100.082031 C 254.496094 101.074219 255.296875 101.882812 256.292969 101.882812 C 257.289062 101.882812 258.089844 101.074219 258.089844 100.082031 L 258.089844 87.089844 C 258.089844 86.09375 257.289062 85.289062 256.292969 85.289062 C 255.296875 85.289062 254.496094 86.09375 254.496094 87.089844 " fill-opacity="1" fill-rule="nonzero"/><path fill="rgb(0%, 0%, 0%)" d="M 268.589844 87.089844 L 268.589844 100.082031 C 268.589844 101.074219 269.394531 101.882812 270.386719 101.882812 C 271.382812 101.882812 272.1875 101.074219 272.1875 100.082031 L 272.1875 87.089844 C 272.1875 86.09375 271.382812 85.289062 270.386719 85.289062 C 269.394531 85.289062 268.589844 86.09375 268.589844 87.089844 " fill-opacity="1" fill-rule="nonzero"/><path fill="rgb(100%, 100%, 100%)" d="M 242.199219 54.035156 L 133.972656 54.035156 L 133.972656 65.285156 L 242.199219 65.285156 L 242.199219 54.035156 " fill-opacity="1" fill-rule="nonzero"/><g clip-path="url(#id1)"><path fill="rgb(0%, 0%, 0%)" d="M 242.199219 54.035156 L 242.199219 52.234375 L 133.972656 52.234375 C 133.5 52.234375 133.035156 52.425781 132.703125 52.761719 C 132.363281 53.097656 132.171875 53.5625 132.171875 54.035156 L 132.171875 65.285156 C 132.171875 65.761719 132.363281 66.222656 132.703125 66.558594 C 133.035156 66.894531 133.5 67.085938 133.972656 67.085938 L 242.199219 67.085938 C 242.675781 67.085938 243.136719 66.894531 243.472656 66.558594 C 243.804688 66.222656 244 65.761719 244 65.285156 L 244 54.035156 C 244 53.5625 243.804688 53.097656 243.472656 52.761719 C 243.136719 52.425781 242.675781 52.234375 242.199219 52.234375 L 242.199219 54.035156 L 240.402344 54.035156 L 240.402344 63.480469 L 135.773438 63.480469 L 135.773438 55.839844 L 242.199219 55.839844 L 242.199219 54.035156 L 240.402344 54.035156 L 242.199219 54.035156 " fill-opacity="1" fill-rule="nonzero"/></g><path fill="rgb(0%, 0%, 0%)" d="M 141.878906 225.597656 L 139.902344 225.597656 C 135.167969 225.597656 131.316406 221.734375 131.316406 216.984375 L 131.316406 196.074219 C 131.316406 191.332031 135.167969 187.460938 139.902344 187.460938 L 141.878906 187.460938 C 146.691406 187.460938 150.464844 190.121094 150.464844 193.53125 L 150.464844 197.511719 C 150.464844 198.664062 149.535156 199.589844 148.390625 199.589844 C 147.246094 199.589844 146.320312 198.664062 146.320312 197.511719 L 146.320312 193.53125 C 146.320312 192.875 144.589844 191.621094 141.878906 191.621094 L 139.902344 191.621094 C 137.453125 191.621094 135.460938 193.617188 135.460938 196.074219 L 135.460938 216.984375 C 135.460938 219.441406 137.453125 221.445312 139.902344 221.445312 L 141.878906 221.445312 C 144.3125 221.445312 145.808594 220.867188 146.320312 220.539062 L 146.320312 218.386719 C 146.320312 217.238281 147.246094 216.308594 148.390625 216.308594 C 149.535156 216.308594 150.464844 217.238281 150.464844 218.386719 L 150.464844 220.953125 C 150.464844 224.160156 146.148438 225.597656 141.878906 225.597656 " fill-opacity="1" fill-rule="nonzero"/><path fill="rgb(0%, 0%, 0%)" d="M 224.9375 225.597656 L 222.96875 225.597656 C 218.226562 225.597656 214.375 221.734375 214.375 216.984375 L 214.375 196.074219 C 214.375 191.332031 218.226562 187.460938 222.96875 187.460938 L 224.9375 187.460938 C 229.746094 187.460938 233.523438 190.121094 233.523438 193.53125 L 233.523438 197.511719 C 233.523438 198.664062 232.597656 199.589844 231.453125 199.589844 C 230.308594 199.589844 229.378906 198.664062 229.378906 197.511719 L 229.378906 193.53125 C 229.378906 192.875 227.652344 191.621094 224.9375 191.621094 L 222.96875 191.621094 C 220.511719 191.621094 218.519531 193.617188 218.519531 196.074219 L 218.519531 216.984375 C 218.519531 219.441406 220.511719 221.445312 222.96875 221.445312 L 224.9375 221.445312 C 227.375 221.445312 228.867188 220.867188 229.378906 220.539062 L 229.378906 218.386719 C 229.378906 217.238281 230.308594 216.308594 231.453125 216.308594 C 232.597656 216.308594 233.523438 217.238281 233.523438 218.386719 L 233.523438 220.953125 C 233.523438 224.160156 229.207031 225.597656 224.9375 225.597656 " fill-opacity="1" fill-rule="nonzero"/><path fill="rgb(0%, 0%, 0%)" d="M 174.914062 225.597656 C 173.769531 225.597656 172.84375 224.671875 172.84375 223.527344 L 172.84375 196.074219 C 172.84375 191.332031 176.699219 187.460938 181.433594 187.460938 L 183.40625 187.460938 C 188.21875 187.460938 191.992188 190.121094 191.992188 193.53125 L 191.992188 197.511719 C 191.992188 198.664062 191.0625 199.589844 189.917969 199.589844 C 188.773438 199.589844 187.851562 198.664062 187.851562 197.511719 L 187.851562 193.53125 C 187.851562 192.875 186.117188 191.621094 183.40625 191.621094 L 181.433594 191.621094 C 178.984375 191.621094 176.988281 193.617188 176.988281 196.074219 L 176.988281 223.527344 C 176.988281 224.671875 176.066406 225.597656 174.914062 225.597656 " fill-opacity="1" fill-rule="nonzero"/><path fill="rgb(0%, 0%, 0%)" d="M 160.582031 191.621094 C 158.132812 191.621094 156.136719 193.617188 156.136719 196.074219 L 156.136719 216.984375 C 156.136719 219.441406 158.132812 221.445312 160.582031 221.445312 L 162.820312 221.445312 C 165.265625 221.445312 167.261719 219.441406 167.261719 216.984375 L 167.261719 196.074219 C 167.261719 193.617188 165.265625 191.621094 162.820312 191.621094 Z M 162.820312 225.597656 L 160.582031 225.597656 C 155.847656 225.597656 151.992188 221.734375 151.992188 216.984375 L 151.992188 196.074219 C 151.992188 191.332031 155.847656 187.460938 160.582031 187.460938 L 162.820312 187.460938 C 167.550781 187.460938 171.40625 191.332031 171.40625 196.074219 L 171.40625 216.984375 C 171.40625 221.734375 167.550781 225.597656 162.820312 225.597656 " fill-opacity="1" fill-rule="nonzero"/><path fill="rgb(0%, 0%, 0%)" d="M 186.5 206.71875 L 174.914062 206.71875 C 173.769531 206.71875 172.84375 205.789062 172.84375 204.640625 C 172.84375 203.496094 173.769531 202.566406 174.914062 202.566406 L 186.5 202.566406 C 187.644531 202.566406 188.566406 203.496094 188.566406 204.640625 C 188.566406 205.789062 187.644531 206.71875 186.5 206.71875 " fill-opacity="1" fill-rule="nonzero"/><path fill="rgb(0%, 0%, 0%)" d="M 195.765625 225.597656 C 194.625 225.597656 193.695312 224.671875 193.695312 223.527344 L 193.695312 196.074219 C 193.695312 191.332031 197.546875 187.460938 202.28125 187.460938 L 204.257812 187.460938 C 209.074219 187.460938 212.84375 190.121094 212.84375 193.53125 L 212.84375 197.511719 C 212.84375 198.664062 211.914062 199.589844 210.769531 199.589844 C 209.625 199.589844 208.699219 198.664062 208.699219 197.511719 L 208.699219 193.53125 C 208.699219 192.875 206.96875 191.621094 204.257812 191.621094 L 202.28125 191.621094 C 199.832031 191.621094 197.839844 193.617188 197.839844 196.074219 L 197.839844 223.527344 C 197.839844 224.671875 196.910156 225.597656 195.765625 225.597656 " fill-opacity="1" fill-rule="nonzero"/><path fill="rgb(0%, 0%, 0%)" d="M 207.347656 206.71875 L 195.765625 206.71875 C 194.625 206.71875 193.695312 205.789062 193.695312 204.640625 C 193.695312 203.496094 194.625 202.566406 195.765625 202.566406 L 207.347656 202.566406 C 208.492188 202.566406 209.421875 203.496094 209.421875 204.640625 C 209.421875 205.789062 208.492188 206.71875 207.347656 206.71875 " fill-opacity="1" fill-rule="nonzero"/><path fill="rgb(0%, 0%, 0%)" d="M 228.027344 206.71875 L 216.449219 206.71875 C 215.304688 206.71875 214.375 205.789062 214.375 204.640625 C 214.375 203.496094 215.304688 202.566406 216.449219 202.566406 L 228.027344 202.566406 C 229.171875 202.566406 230.101562 203.496094 230.101562 204.640625 C 230.101562 205.789062 229.171875 206.71875 228.027344 206.71875 " fill-opacity="1" fill-rule="nonzero"/><path fill="rgb(0%, 0%, 0%)" d="M 245.785156 225.597656 L 243.8125 225.597656 C 239.078125 225.597656 235.226562 221.734375 235.226562 216.984375 L 235.226562 196.074219 C 235.226562 191.332031 239.078125 187.460938 243.8125 187.460938 L 245.785156 187.460938 C 250.601562 187.460938 254.371094 190.121094 254.371094 193.53125 L 254.371094 197.511719 C 254.371094 198.664062 253.449219 199.589844 252.300781 199.589844 C 251.160156 199.589844 250.230469 198.664062 250.230469 197.511719 L 250.230469 193.53125 C 250.230469 192.875 248.496094 191.621094 245.785156 191.621094 L 243.8125 191.621094 C 241.363281 191.621094 239.367188 193.617188 239.367188 196.074219 L 239.367188 216.984375 C 239.367188 219.441406 241.363281 221.445312 243.8125 221.445312 L 245.785156 221.445312 C 248.226562 221.445312 249.71875 220.867188 250.230469 220.539062 L 250.230469 218.386719 C 250.230469 217.238281 251.160156 216.308594 252.300781 216.308594 C 253.449219 216.308594 254.371094 217.238281 254.371094 218.386719 L 254.371094 220.953125 C 254.371094 224.160156 250.058594 225.597656 245.785156 225.597656 " fill-opacity="1" fill-rule="nonzero"/><path fill="rgb(0%, 0%, 0%)" d="M 248.878906 206.71875 L 237.300781 206.71875 C 236.152344 206.71875 235.226562 205.789062 235.226562 204.640625 C 235.226562 203.496094 236.152344 202.566406 237.300781 202.566406 L 248.878906 202.566406 C 250.023438 202.566406 250.953125 203.496094 250.953125 204.640625 C 250.953125 205.789062 250.023438 206.71875 248.878906 206.71875 " fill-opacity="1" fill-rule="nonzero"/><g clip-path="url(#id2)"><path fill="rgb(0%, 0%, 0%)" d="M 198.222656 54.609375 C 198.222656 56.90625 197.300781 58.96875 195.804688 60.476562 C 194.300781 61.984375 192.242188 62.902344 189.953125 62.910156 C 187.664062 62.902344 185.613281 61.984375 184.113281 60.476562 C 182.609375 58.96875 181.6875 56.90625 181.6875 54.609375 C 181.6875 53.613281 180.878906 52.804688 179.886719 52.804688 C 178.894531 52.804688 178.085938 53.613281 178.085938 54.609375 C 178.089844 61.183594 183.402344 66.515625 189.953125 66.515625 C 196.507812 66.515625 201.824219 61.183594 201.824219 54.609375 C 201.824219 53.613281 201.015625 52.804688 200.023438 52.804688 C 199.03125 52.804688 198.222656 53.613281 198.222656 54.609375 " fill-opacity="1" fill-rule="nonzero"/></g><path fill="rgb(67.059326%, 52.938843%, 37.249756%)" d="M 126.191406 169.453125 L 258.941406 169.453125 L 258.941406 239.203125 L 126.191406 239.203125 L 126.191406 169.453125 " fill-opacity="1" fill-rule="nonzero"/><g fill="rgb(100%, 100%, 100%)" fill-opacity="1"><g transform="translate(120.670657, 199.689374)"><g><path d="M 8.78125 -12.578125 C 7.757812 -12.578125 6.960938 -12.160156 6.390625 -11.328125 C 5.816406 -10.492188 5.53125 -9.34375 5.53125 -7.875 C 5.53125 -4.820312 6.691406 -3.296875 9.015625 -3.296875 C 9.722656 -3.296875 10.40625 -3.390625 11.0625 -3.578125 C 11.71875 -3.773438 12.378906 -4.007812 13.046875 -4.28125 L 13.046875 -0.65625 C 11.722656 -0.0703125 10.226562 0.21875 8.5625 0.21875 C 6.164062 0.21875 4.328125 -0.472656 3.046875 -1.859375 C 1.765625 -3.253906 1.125 -5.265625 1.125 -7.890625 C 1.125 -9.535156 1.429688 -10.976562 2.046875 -12.21875 C 2.671875 -13.46875 3.5625 -14.425781 4.71875 -15.09375 C 5.882812 -15.757812 7.253906 -16.09375 8.828125 -16.09375 C 10.546875 -16.09375 12.1875 -15.722656 13.75 -14.984375 L 12.4375 -11.609375 C 11.84375 -11.878906 11.253906 -12.109375 10.671875 -12.296875 C 10.085938 -12.484375 9.457031 -12.578125 8.78125 -12.578125 Z M 8.78125 -12.578125 "/></g></g></g><g fill="rgb(100%, 100%, 100%)" fill-opacity="1"><g transform="translate(135.097529, 199.689374)"><g><path d="M 13.21875 -6.171875 C 13.21875 -4.160156 12.675781 -2.59375 11.59375 -1.46875 C 10.507812 -0.34375 8.992188 0.21875 7.046875 0.21875 C 5.179688 0.21875 3.695312 -0.351562 2.59375 -1.5 C 1.488281 -2.65625 0.9375 -4.210938 0.9375 -6.171875 C 0.9375 -8.179688 1.476562 -9.738281 2.5625 -10.84375 C 3.644531 -11.957031 5.160156 -12.515625 7.109375 -12.515625 C 8.316406 -12.515625 9.382812 -12.253906 10.3125 -11.734375 C 11.238281 -11.222656 11.953125 -10.488281 12.453125 -9.53125 C 12.960938 -8.570312 13.21875 -7.453125 13.21875 -6.171875 Z M 5.25 -6.171875 C 5.25 -5.117188 5.390625 -4.316406 5.671875 -3.765625 C 5.953125 -3.210938 6.425781 -2.9375 7.09375 -2.9375 C 7.75 -2.9375 8.210938 -3.210938 8.484375 -3.765625 C 8.753906 -4.316406 8.890625 -5.117188 8.890625 -6.171875 C 8.890625 -7.222656 8.75 -8.015625 8.46875 -8.546875 C 8.195312 -9.085938 7.726562 -9.359375 7.0625 -9.359375 C 6.414062 -9.359375 5.953125 -9.09375 5.671875 -8.5625 C 5.390625 -8.03125 5.25 -7.234375 5.25 -6.171875 Z M 5.25 -6.171875 "/></g></g></g><g fill="rgb(100%, 100%, 100%)" fill-opacity="1"><g transform="translate(149.26387, 199.689374)"><g><path d="M 8.984375 -9.125 L 6.359375 -9.125 L 6.359375 0 L 2.109375 0 L 2.109375 -9.125 L 0.484375 -9.125 L 0.484375 -11.203125 L 2.203125 -12.25 L 2.203125 -12.453125 C 2.203125 -14.078125 2.53125 -15.242188 3.1875 -15.953125 C 3.851562 -16.660156 4.921875 -17.015625 6.390625 -17.015625 C 6.953125 -17.015625 7.484375 -16.96875 7.984375 -16.875 C 8.484375 -16.789062 9.066406 -16.640625 9.734375 -16.421875 L 8.828125 -13.671875 C 8.304688 -13.816406 7.796875 -13.890625 7.296875 -13.890625 C 6.972656 -13.890625 6.734375 -13.789062 6.578125 -13.59375 C 6.429688 -13.394531 6.359375 -13.070312 6.359375 -12.625 L 6.359375 -12.296875 L 8.984375 -12.296875 Z M 8.984375 -9.125 "/></g></g></g><g fill="rgb(100%, 100%, 100%)" fill-opacity="1"><g transform="translate(158.447568, 199.689374)"><g><path d="M 8.984375 -9.125 L 6.359375 -9.125 L 6.359375 0 L 2.109375 0 L 2.109375 -9.125 L 0.484375 -9.125 L 0.484375 -11.203125 L 2.203125 -12.25 L 2.203125 -12.453125 C 2.203125 -14.078125 2.53125 -15.242188 3.1875 -15.953125 C 3.851562 -16.660156 4.921875 -17.015625 6.390625 -17.015625 C 6.953125 -17.015625 7.484375 -16.96875 7.984375 -16.875 C 8.484375 -16.789062 9.066406 -16.640625 9.734375 -16.421875 L 8.828125 -13.671875 C 8.304688 -13.816406 7.796875 -13.890625 7.296875 -13.890625 C 6.972656 -13.890625 6.734375 -13.789062 6.578125 -13.59375 C 6.429688 -13.394531 6.359375 -13.070312 6.359375 -12.625 L 6.359375 -12.296875 L 8.984375 -12.296875 Z M 8.984375 -9.125 "/></g></g></g><g fill="rgb(100%, 100%, 100%)" fill-opacity="1"><g transform="translate(167.631265, 199.689374)"><g><path d="M 7.40625 0.21875 C 5.351562 0.21875 3.757812 -0.320312 2.625 -1.40625 C 1.5 -2.5 0.9375 -4.050781 0.9375 -6.0625 C 0.9375 -8.144531 1.457031 -9.738281 2.5 -10.84375 C 3.550781 -11.957031 5.050781 -12.515625 7 -12.515625 C 8.851562 -12.515625 10.285156 -12.03125 11.296875 -11.0625 C 12.304688 -10.101562 12.8125 -8.710938 12.8125 -6.890625 L 12.8125 -5 L 5.21875 -5 C 5.25 -4.3125 5.5 -3.769531 5.96875 -3.375 C 6.445312 -2.988281 7.097656 -2.796875 7.921875 -2.796875 C 8.660156 -2.796875 9.34375 -2.863281 9.96875 -3 C 10.59375 -3.144531 11.269531 -3.390625 12 -3.734375 L 12 -0.6875 C 11.34375 -0.34375 10.65625 -0.109375 9.9375 0.015625 C 9.226562 0.148438 8.382812 0.21875 7.40625 0.21875 Z M 7.15625 -9.625 C 6.65625 -9.625 6.234375 -9.46875 5.890625 -9.15625 C 5.554688 -8.84375 5.363281 -8.347656 5.3125 -7.671875 L 8.953125 -7.671875 C 8.941406 -8.265625 8.773438 -8.738281 8.453125 -9.09375 C 8.128906 -9.445312 7.695312 -9.625 7.15625 -9.625 Z M 7.15625 -9.625 "/></g></g></g><g fill="rgb(100%, 100%, 100%)" fill-opacity="1"><g transform="translate(181.374244, 199.689374)"><g><path d="M 7.40625 0.21875 C 5.351562 0.21875 3.757812 -0.320312 2.625 -1.40625 C 1.5 -2.5 0.9375 -4.050781 0.9375 -6.0625 C 0.9375 -8.144531 1.457031 -9.738281 2.5 -10.84375 C 3.550781 -11.957031 5.050781 -12.515625 7 -12.515625 C 8.851562 -12.515625 10.285156 -12.03125 11.296875 -11.0625 C 12.304688 -10.101562 12.8125 -8.710938 12.8125 -6.890625 L 12.8125 -5 L 5.21875 -5 C 5.25 -4.3125 5.5 -3.769531 5.96875 -3.375 C 6.445312 -2.988281 7.097656 -2.796875 7.921875 -2.796875 C 8.660156 -2.796875 9.34375 -2.863281 9.96875 -3 C 10.59375 -3.144531 11.269531 -3.390625 12 -3.734375 L 12 -0.6875 C 11.34375 -0.34375 10.65625 -0.109375 9.9375 0.015625 C 9.226562 0.148438 8.382812 0.21875 7.40625 0.21875 Z M 7.15625 -9.625 C 6.65625 -9.625 6.234375 -9.46875 5.890625 -9.15625 C 5.554688 -8.84375 5.363281 -8.347656 5.3125 -7.671875 L 8.953125 -7.671875 C 8.941406 -8.265625 8.773438 -8.738281 8.453125 -9.09375 C 8.128906 -9.445312 7.695312 -9.625 7.15625 -9.625 Z M 7.15625 -9.625 "/></g></g></g><g fill="rgb(100%, 100%, 100%)" fill-opacity="1"><g transform="translate(195.117223, 199.689374)"><g><path d="M 9.203125 0 L 9.203125 -6.703125 C 9.203125 -8.359375 8.710938 -9.1875 7.734375 -9.1875 C 7.046875 -9.1875 6.535156 -8.894531 6.203125 -8.3125 C 5.867188 -7.726562 5.703125 -6.757812 5.703125 -5.40625 L 5.703125 0 L 1.46875 0 L 1.46875 -16.890625 L 5.703125 -16.890625 L 5.703125 -14.5 C 5.703125 -13.40625 5.644531 -12.164062 5.53125 -10.78125 L 5.734375 -10.78125 C 6.140625 -11.414062 6.617188 -11.863281 7.171875 -12.125 C 7.734375 -12.382812 8.382812 -12.515625 9.125 -12.515625 C 10.5 -12.515625 11.566406 -12.117188 12.328125 -11.328125 C 13.085938 -10.535156 13.46875 -9.425781 13.46875 -8 L 13.46875 0 Z M 9.203125 0 "/></g></g></g><g fill="rgb(100%, 100%, 100%)" fill-opacity="1"><g transform="translate(210.010879, 199.689374)"><g><path d="M 13.21875 -6.171875 C 13.21875 -4.160156 12.675781 -2.59375 11.59375 -1.46875 C 10.507812 -0.34375 8.992188 0.21875 7.046875 0.21875 C 5.179688 0.21875 3.695312 -0.351562 2.59375 -1.5 C 1.488281 -2.65625 0.9375 -4.210938 0.9375 -6.171875 C 0.9375 -8.179688 1.476562 -9.738281 2.5625 -10.84375 C 3.644531 -11.957031 5.160156 -12.515625 7.109375 -12.515625 C 8.316406 -12.515625 9.382812 -12.253906 10.3125 -11.734375 C 11.238281 -11.222656 11.953125 -10.488281 12.453125 -9.53125 C 12.960938 -8.570312 13.21875 -7.453125 13.21875 -6.171875 Z M 5.25 -6.171875 C 5.25 -5.117188 5.390625 -4.316406 5.671875 -3.765625 C 5.953125 -3.210938 6.425781 -2.9375 7.09375 -2.9375 C 7.75 -2.9375 8.210938 -3.210938 8.484375 -3.765625 C 8.753906 -4.316406 8.890625 -5.117188 8.890625 -6.171875 C 8.890625 -7.222656 8.75 -8.015625 8.46875 -8.546875 C 8.195312 -9.085938 7.726562 -9.359375 7.0625 -9.359375 C 6.414062 -9.359375 5.953125 -9.09375 5.671875 -8.5625 C 5.390625 -8.03125 5.25 -7.234375 5.25 -6.171875 Z M 5.25 -6.171875 "/></g></g></g><g fill="rgb(100%, 100%, 100%)" fill-opacity="1"><g transform="translate(224.17722, 199.689374)"><g><path d="M 10.234375 0 L 9.6875 -1.53125 L 9.4375 -1.53125 C 9.082031 -0.96875 8.585938 -0.535156 7.953125 -0.234375 C 7.328125 0.0664062 6.585938 0.21875 5.734375 0.21875 C 4.378906 0.21875 3.320312 -0.171875 2.5625 -0.953125 C 1.8125 -1.742188 1.4375 -2.851562 1.4375 -4.28125 L 1.4375 -12.296875 L 5.6875 -12.296875 L 5.6875 -5.578125 C 5.6875 -4.773438 5.800781 -4.164062 6.03125 -3.75 C 6.257812 -3.34375 6.632812 -3.140625 7.15625 -3.140625 C 7.882812 -3.140625 8.40625 -3.425781 8.71875 -4 C 9.03125 -4.570312 9.1875 -5.546875 9.1875 -6.921875 L 9.1875 -12.296875 L 13.421875 -12.296875 L 13.421875 0 Z M 10.234375 0 "/></g></g></g><g fill="rgb(100%, 100%, 100%)" fill-opacity="1"><g transform="translate(239.070882, 199.689374)"><g><path d="M 10.96875 -3.78125 C 10.96875 -2.457031 10.515625 -1.457031 9.609375 -0.78125 C 8.710938 -0.113281 7.425781 0.21875 5.75 0.21875 C 4.84375 0.21875 4.050781 0.164062 3.375 0.0625 C 2.695312 -0.03125 2.007812 -0.207031 1.3125 -0.46875 L 1.3125 -3.859375 C 1.96875 -3.578125 2.6875 -3.335938 3.46875 -3.140625 C 4.257812 -2.953125 4.960938 -2.859375 5.578125 -2.859375 C 6.492188 -2.859375 6.953125 -3.070312 6.953125 -3.5 C 6.953125 -3.71875 6.820312 -3.910156 6.5625 -4.078125 C 6.3125 -4.242188 5.566406 -4.570312 4.328125 -5.0625 C 3.203125 -5.53125 2.414062 -6.054688 1.96875 -6.640625 C 1.519531 -7.234375 1.296875 -7.984375 1.296875 -8.890625 C 1.296875 -10.035156 1.734375 -10.925781 2.609375 -11.5625 C 3.492188 -12.195312 4.742188 -12.515625 6.359375 -12.515625 C 7.171875 -12.515625 7.929688 -12.425781 8.640625 -12.25 C 9.359375 -12.070312 10.101562 -11.8125 10.875 -11.46875 L 9.71875 -8.734375 C 9.15625 -8.992188 8.554688 -9.210938 7.921875 -9.390625 C 7.296875 -9.566406 6.785156 -9.65625 6.390625 -9.65625 C 5.691406 -9.65625 5.34375 -9.484375 5.34375 -9.140625 C 5.34375 -8.929688 5.460938 -8.75 5.703125 -8.59375 C 5.941406 -8.445312 6.644531 -8.148438 7.8125 -7.703125 C 8.664062 -7.347656 9.304688 -7 9.734375 -6.65625 C 10.160156 -6.3125 10.472656 -5.910156 10.671875 -5.453125 C 10.867188 -4.992188 10.96875 -4.4375 10.96875 -3.78125 Z M 10.96875 -3.78125 "/></g></g></g><g fill="rgb(100%, 100%, 100%)" fill-opacity="1"><g transform="translate(250.925016, 199.689374)"><g><path d="M 7.40625 0.21875 C 5.351562 0.21875 3.757812 -0.320312 2.625 -1.40625 C 1.5 -2.5 0.9375 -4.050781 0.9375 -6.0625 C 0.9375 -8.144531 1.457031 -9.738281 2.5 -10.84375 C 3.550781 -11.957031 5.050781 -12.515625 7 -12.515625 C 8.851562 -12.515625 10.285156 -12.03125 11.296875 -11.0625 C 12.304688 -10.101562 12.8125 -8.710938 12.8125 -6.890625 L 12.8125 -5 L 5.21875 -5 C 5.25 -4.3125 5.5 -3.769531 5.96875 -3.375 C 6.445312 -2.988281 7.097656 -2.796875 7.921875 -2.796875 C 8.660156 -2.796875 9.34375 -2.863281 9.96875 -3 C 10.59375 -3.144531 11.269531 -3.390625 12 -3.734375 L 12 -0.6875 C 11.34375 -0.34375 10.65625 -0.109375 9.9375 0.015625 C 9.226562 0.148438 8.382812 0.21875 7.40625 0.21875 Z M 7.15625 -9.625 C 6.65625 -9.625 6.234375 -9.46875 5.890625 -9.15625 C 5.554688 -8.84375 5.363281 -8.347656 5.3125 -7.671875 L 8.953125 -7.671875 C 8.941406 -8.265625 8.773438 -8.738281 8.453125 -9.09375 C 8.128906 -9.445312 7.695312 -9.625 7.15625 -9.625 Z M 7.15625 -9.625 "/></g></g></g></svg>